<svg width="150" viewBox="0 0 336 336" fill="none" xmlns="http://www.w3.org/2000/svg">
<path d="M93.3421 184.408C90.8227 183.385 87.9529 184.599 86.9311 187.119C84.8744 192.19 80.0031 195.467 74.5207 195.467C70.9461 195.467 67.5796 194.073 65.0458 191.546C63.7674 190.267 62.781 188.781 62.1136 187.126C61.0958 184.605 58.228 183.386 55.7073 184.404C53.1866 185.422 51.968 188.29 52.9852 190.811C54.1507 193.698 55.8668 196.287 58.0895 198.51C62.4864 202.896 68.3218 205.311 74.5207 205.311C84.0305 205.311 92.483 199.623 96.0537 190.819C97.0748 188.3 95.8608 185.429 93.3421 184.408Z" fill="#0D305B"/>
<path d="M51.8814 157.348C49.1632 157.348 46.9595 159.551 46.9595 162.27V164.454C46.9595 167.172 49.1632 169.376 51.8814 169.376C54.5996 169.376 56.8033 167.172 56.8033 164.454V162.27C56.8033 159.551 54.5996 157.348 51.8814 157.348Z" fill="#0D305B"/>
<path d="M97.1602 157.348C94.442 157.348 92.2383 159.551 92.2383 162.27V164.454C92.2383 167.172 94.442 169.376 97.1602 169.376C99.8784 169.376 102.082 167.172 102.082 164.454V162.27C102.082 159.551 99.8784 157.348 97.1602 157.348Z" fill="#0D305B"/>
<path d="M203.758 146.674C201.24 145.652 198.369 146.865 197.347 149.385C194.21 157.118 186.783 162.115 178.424 162.115C172.974 162.115 167.842 159.99 163.978 156.136C162.029 154.186 160.523 151.917 159.504 149.393C158.486 146.872 155.618 145.653 153.098 146.671C150.577 147.688 149.358 150.556 150.376 153.077C151.894 156.836 154.127 160.206 157.022 163.1C162.748 168.813 170.349 171.959 178.424 171.959C190.81 171.959 201.818 164.55 206.469 153.085C207.491 150.566 206.277 147.696 203.758 146.674Z" fill="#0D305B"/>
<path d="M147.098 109.368C144.379 109.368 142.176 111.572 142.176 114.29V117.313C142.176 120.031 144.379 122.235 147.098 122.235C149.816 122.235 152.02 120.031 152.02 117.313V114.29C152.02 111.572 149.816 109.368 147.098 109.368Z" fill="#0D305B"/>
<path d="M209.751 109.368C207.033 109.368 204.83 111.572 204.83 114.29V117.313C204.83 120.031 207.033 122.235 209.751 122.235C212.47 122.235 214.673 120.031 214.673 117.313V114.29C214.673 111.572 212.47 109.368 209.751 109.368Z" fill="#0D305B"/>
<path d="M308.651 224.21C306.517 222.527 303.422 222.893 301.739 225.028C300.056 227.162 300.422 230.257 302.557 231.94C315.345 242.023 322.68 257.134 322.68 273.397C322.68 302.49 299.012 326.158 269.92 326.158C240.828 326.158 217.16 302.49 217.16 273.397C217.16 244.305 240.828 220.637 269.92 220.637C275.411 220.637 280.819 221.476 285.995 223.129C288.585 223.957 291.354 222.528 292.181 219.939C293.009 217.35 291.58 214.58 288.991 213.753C282.846 211.789 276.429 210.794 269.92 210.794C255.981 210.794 243.093 215.374 232.678 223.107C225.741 220.14 218.375 218.637 210.735 218.637H206.83V207.382C213.439 204.315 219.567 200.164 224.973 195.017C236.39 184.139 243.55 169.832 245.426 154.326H255.307C266.079 154.326 274.843 145.562 274.843 134.79V127.875C274.843 120.224 270.419 113.59 263.997 110.386V51.7324C263.997 33.0896 248.83 17.9223 230.187 17.9223H221.519C215.777 7.00025 204.252 0 191.861 0H150.937C139.853 0 129.076 3.13229 119.772 9.05891C117.479 10.5191 116.804 13.5615 118.265 15.8544C119.725 18.1467 122.766 18.822 125.061 17.3612C132.782 12.4432 141.73 9.84379 150.937 9.84379H191.861C200.86 9.84379 209.211 15.0715 213.142 23.1703L214.035 25.0013C214.86 26.6931 216.577 27.766 218.459 27.766H230.186C243.401 27.766 254.152 38.5174 254.152 51.7324V108.34H245.924V84.9788C245.924 67.9162 238.665 51.5644 226.008 40.1154C223.963 38.2648 221.076 37.6696 218.476 38.5627C215.872 39.4565 213.957 41.7022 213.478 44.4244C209.626 66.3215 190.66 82.2147 168.381 82.2147H115.847H107.885C105.167 82.2147 102.963 84.4184 102.963 87.1366C102.963 89.8548 105.167 92.0585 107.885 92.0585H110.925V108.34H102.696V58.0849C102.696 47.7083 105.938 37.8257 112.072 29.5051C113.685 27.3172 113.219 24.2361 111.03 22.623C108.843 21.0099 105.761 21.4759 104.148 23.6645C96.7579 33.6887 92.8519 45.5918 92.8519 58.0849V110.387C86.4304 113.591 82.0073 120.225 82.0073 127.875V134.79C82.0073 134.857 82.0119 134.924 82.0126 134.991H81.1968C80.2216 134.991 79.2629 134.663 78.4964 134.066L62.4963 121.617C60.4468 120.029 57.829 119.478 55.3142 120.109C52.8001 120.739 50.7507 122.457 49.6901 124.828L46.319 132.384C45.6102 133.967 44.0332 134.99 42.3001 134.99H34.2151V111.556C34.2151 107.488 37.5272 104.179 41.5979 104.179H55.0708C57.789 104.179 59.9927 101.976 59.9927 99.2575V94.7819C59.9927 92.8821 61.5381 91.3366 63.438 91.3366H79.024C81.7422 91.3366 83.9459 89.1329 83.9459 86.4147C83.9459 83.6965 81.7422 81.4928 79.024 81.4928H63.438C56.2599 81.4928 50.3923 87.214 50.1561 94.3356H41.5985C32.0999 94.3356 24.3719 102.06 24.3719 111.556V136.605V139.912V156.601H18.9578C10.4213 156.601 3.47684 163.549 3.47684 172.088V177.083C3.47684 185.622 10.422 192.57 18.9578 192.57H24.9022C27.3382 209.345 38.02 223.325 52.6302 230.416V236.316H51.1733C29.9271 236.316 12.0718 252.225 9.63905 273.321L4.93372 313.981C4.71912 315.833 5.30713 317.694 6.54744 319.086C7.78973 320.481 9.57408 321.28 11.4437 321.28H70.5459C73.2641 321.28 75.4677 319.077 75.4677 316.358C75.4677 313.64 73.2641 311.436 70.5459 311.436H39.1107V284.044C39.1107 281.326 36.907 279.123 34.1888 279.123C31.4706 279.123 29.2669 281.326 29.2669 284.044V311.436H15.1378L19.4179 274.449C21.277 258.321 34.9297 246.159 51.1733 246.159H52.9333C54.6599 256.519 63.6814 264.442 74.5227 264.442C80.366 264.442 85.8621 262.164 89.9991 258.027C93.2712 254.755 95.3752 250.631 96.1141 246.16H97.8722C97.8827 246.16 97.8932 246.16 97.9044 246.16C94.0312 252.722 91.4462 260.165 90.5222 268.168L84.0108 324.443C83.7818 326.474 84.4315 328.513 85.7926 330.037C87.1517 331.558 89.1007 332.43 91.1391 332.43H249.082C255.604 334.739 262.617 336 269.919 336C304.44 336 332.523 307.916 332.523 273.396C332.523 254.1 323.822 236.172 308.651 224.21ZM91.8511 127.875C91.8511 122.531 96.1988 118.183 101.543 118.183H115.847C118.565 118.183 120.769 115.98 120.769 113.261V92.0578H168.381C194.032 92.0578 216.07 74.7091 222.29 50.2427C231.097 59.5963 236.08 72.0434 236.08 84.9781V113.261C236.08 115.98 238.284 118.183 241.002 118.183H255.306C260.65 118.183 264.998 122.531 264.998 127.875V134.79C264.998 140.134 260.65 144.482 255.306 144.482H240.912C238.293 144.482 236.132 146.533 235.997 149.149C235.232 163.914 228.906 177.672 218.182 187.888C212.861 192.955 206.72 196.891 200.075 199.581C200.015 199.606 199.956 199.631 199.897 199.658C193.146 202.365 185.88 203.785 178.424 203.785C170.825 203.785 163.56 202.311 156.902 199.634C156.822 199.599 156.739 199.57 156.657 199.539C136.538 191.344 122.035 172.112 120.852 149.15C120.716 146.533 118.556 144.481 115.936 144.481H101.543C96.1988 144.481 91.8511 140.134 91.8511 134.789V127.875V127.875ZM196.986 211.043V231.729C196.986 236.685 195.055 241.349 191.547 244.862C188.049 248.365 183.39 250.295 178.427 250.295C168.19 250.295 159.862 241.966 159.862 231.729V211.046C165.765 212.729 171.993 213.629 178.425 213.629C184.779 213.629 191.014 212.745 196.986 211.043ZM86.5715 242.551C86.5715 245.765 85.3168 248.789 83.0383 251.067C80.7604 253.346 77.7364 254.6 74.5227 254.6C67.8788 254.6 62.4739 249.195 62.4739 242.551V233.964C66.338 234.916 70.3713 235.431 74.5227 235.431C78.6289 235.431 82.6688 234.931 86.5715 233.969V242.551ZM97.8722 236.317H96.4153V230.398C101.022 228.159 105.305 225.213 109.104 221.595C114.769 216.195 119.147 209.459 121.763 202.118C122.675 199.557 121.339 196.742 118.779 195.829C116.221 194.918 113.404 196.252 112.49 198.813C110.388 204.712 106.868 210.127 102.314 214.469C98.5757 218.029 94.2595 220.792 89.5903 222.674C89.5818 222.678 89.5726 222.682 89.564 222.686C84.8364 224.587 79.7459 225.586 74.5234 225.586C69.215 225.586 64.1402 224.557 59.488 222.688C59.4368 222.666 59.3836 222.649 59.3311 222.628C45.2552 216.905 35.1049 203.455 34.2754 187.394C34.1402 184.778 31.9792 182.726 29.3601 182.726H18.9585C15.8498 182.726 13.3213 180.194 13.3213 177.083V172.088C13.3213 168.977 15.8505 166.445 18.9585 166.445H29.2945C32.0127 166.445 34.2164 164.241 34.2164 161.523V144.835H42.3014C47.9104 144.835 53.0154 141.525 55.3077 136.399L57.9248 130.533L72.4496 141.834C74.9342 143.769 78.0409 144.836 81.1968 144.836H84.7957C88.2161 150.517 94.4426 154.326 101.543 154.326H111.422C114.281 178.029 129.336 197.792 150.018 207.384V218.637H146.113C129.836 218.637 115.054 225.624 104.77 236.89C102.498 236.512 100.189 236.317 97.8722 236.317ZM127.539 322.588V282.794C127.539 280.075 125.335 277.872 122.617 277.872C119.899 277.872 117.695 280.075 117.695 282.794V322.588H94.1348L100.301 269.3C102.987 246.03 122.682 228.481 146.113 228.481H150.018V231.729C150.018 247.394 162.762 260.139 178.427 260.139C186.022 260.139 193.155 257.183 198.513 251.817C203.876 246.445 206.83 239.312 206.83 231.729V228.481H210.735C215.416 228.481 219.97 229.169 224.346 230.522C213.793 241.733 207.316 256.822 207.316 273.397C207.316 293.329 216.68 311.114 231.238 322.588H127.539V322.588Z" fill="#0D305B"/>
<path d="M304.872 258.707H284.61V238.445C284.61 234.566 281.454 231.411 277.576 231.411H262.263C258.384 231.411 255.229 234.566 255.229 238.445V258.707H234.967C231.088 258.707 227.933 261.863 227.933 265.741V281.054C227.933 284.932 231.088 288.088 234.967 288.088H255.229V308.35C255.229 312.229 258.384 315.384 262.263 315.384H277.576C281.454 315.384 284.61 312.229 284.61 308.35V288.088H304.872C308.75 288.088 311.906 284.932 311.906 281.054V265.741C311.906 261.863 308.75 258.707 304.872 258.707ZM302.063 278.245H281.801C277.922 278.245 274.766 281.4 274.766 285.279V305.541H265.073V285.279C265.073 281.4 261.918 278.245 258.039 278.245H237.777V278.244V268.55H258.039C261.918 268.55 265.073 265.394 265.073 261.516V241.254H274.766V261.517C274.766 265.395 277.922 268.551 281.801 268.551H302.063V278.245Z" fill="#0D305B"/>
</svg>
