<svg width="150"  viewBox="0 0 307 301" fill="none" xmlns="http://www.w3.org/2000/svg">
<g clip-path="url(#clip0)">
<path d="M292.911 200.404L266.778 189.017C264.933 188.213 263.74 186.413 263.74 184.433V177.398C272.518 170.54 278.161 159.98 278.161 148.145V138.241C281.053 136.675 282.967 133.647 282.967 130.256V129.295C282.967 108.674 265.856 91.8973 244.824 91.8973H235.211C214.179 91.8973 197.068 108.674 197.068 129.295V138.016C197.068 140.997 198.377 143.697 200.657 145.425C201.044 145.717 201.451 145.975 201.875 146.198V148.145C201.875 159.98 207.516 170.54 216.294 177.397V184.434C216.294 186.414 215.101 188.213 213.256 189.017L187.124 200.405C178.565 204.134 173.035 212.477 173.035 221.659V280.098C173.035 282.533 175.049 284.507 177.532 284.507C180.016 284.507 182.029 282.533 182.029 280.098V221.659C182.029 221.148 182.067 220.643 182.121 220.142L194.162 231.948C196.036 233.785 197.068 236.229 197.068 238.828V280.098C197.068 282.533 199.082 284.507 201.565 284.507C204.049 284.507 206.062 282.533 206.062 280.098V238.828C206.062 233.873 204.094 229.216 200.522 225.713L186.166 211.638C187.459 210.322 189.011 209.231 190.777 208.462L216.468 197.267L235.521 215.947V280.097C235.521 282.532 237.534 284.506 240.018 284.506C242.501 284.506 244.515 282.532 244.515 280.097V215.947L263.567 197.267L289.258 208.462C291.023 209.232 292.576 210.323 293.869 211.639L279.514 225.714C275.941 229.216 273.974 233.874 273.974 238.828V280.098C273.974 282.533 275.987 284.507 278.471 284.507C280.954 284.507 282.968 282.533 282.968 280.098V238.828C282.968 236.23 284 233.786 285.874 231.949L297.915 220.143C297.969 220.644 298.006 221.148 298.006 221.659V280.098C298.006 282.533 300.019 284.507 302.503 284.507C304.987 284.507 307 282.533 307 280.098V221.659C306.999 212.477 301.469 204.133 292.911 200.404ZM240.018 207.886L223.3 191.495C224.571 189.398 225.289 186.972 225.289 184.434V182.639C229.823 184.507 234.799 185.542 240.018 185.542C245.237 185.542 250.212 184.508 254.746 182.639V184.433C254.746 186.972 255.464 189.398 256.736 191.495L240.018 207.886ZM240.018 176.723C223.945 176.724 210.869 163.903 210.869 148.145V146.161C213.675 145.071 216.414 143.336 219.036 140.963C220.861 139.312 220.975 136.522 219.29 134.733C217.607 132.944 214.761 132.832 212.936 134.483C210.687 136.519 208.439 137.834 206.258 138.392C206.205 138.406 206.166 138.412 206.139 138.414C206.106 138.353 206.062 138.223 206.062 138.016V129.294C206.062 113.536 219.139 100.715 235.211 100.715H244.824C260.897 100.715 273.973 113.536 273.973 129.294V130.255C273.973 130.398 273.885 130.522 273.77 130.545C246.839 135.759 233.334 125.931 228.777 121.463C227.021 119.742 224.174 119.742 222.418 121.463C220.662 123.185 220.662 125.977 222.418 127.699C236.382 141.39 256.76 141.637 269.166 140.176V148.144C269.166 163.903 256.09 176.723 240.018 176.723Z" fill="#0D305B"/>
<path d="M139.081 124.885H129.468C113.736 124.885 100.938 137.434 100.938 152.857V162.282C100.938 164.718 102.951 166.692 105.435 166.692C105.472 166.692 105.58 166.691 105.744 166.684V171.708C105.744 180.021 109.466 187.494 115.357 192.622V198.87C115.357 200.782 114.274 202.502 112.529 203.357L87.3619 215.695C80.9119 218.856 76.9053 225.213 76.9053 232.284V280.098C76.9053 282.533 78.9188 284.507 81.4023 284.507C83.8859 284.507 85.8994 282.533 85.8994 280.098V232.284C85.8994 231.43 86.0157 230.598 86.228 229.801L93.2248 236.661C95.0992 238.498 96.1311 240.942 96.1311 243.54V280.098C96.1311 282.533 98.1446 284.507 100.628 284.507C103.112 284.507 105.125 282.533 105.125 280.098V243.54C105.125 238.586 103.157 233.928 99.5843 230.426L92.1977 223.183L116.551 211.244C117.348 210.853 118.089 210.393 118.781 209.879L129.777 220.66V280.098C129.777 282.533 131.791 284.507 134.274 284.507C136.758 284.507 138.771 282.533 138.771 280.098V220.66L149.767 209.879C150.458 210.393 151.2 210.854 151.997 211.244L156.295 213.351C156.941 213.668 157.626 213.818 158.302 213.818C159.952 213.818 161.54 212.924 162.328 211.38C163.439 209.201 162.538 206.553 160.317 205.464L156.02 203.357C154.275 202.502 153.191 200.783 153.191 198.87V192.622C159.082 187.494 162.804 180.02 162.804 171.708V166.689C162.908 166.689 163.009 166.692 163.114 166.692C165.597 166.692 167.611 164.718 167.611 162.282V152.857C167.61 137.434 154.812 124.885 139.081 124.885ZM134.274 212.598L123.882 202.41C124.186 201.273 124.352 200.087 124.352 198.871V197.932C127.444 199.06 130.786 199.68 134.274 199.68C137.762 199.68 141.104 199.06 144.196 197.932V198.871C144.196 200.087 144.362 201.273 144.666 202.41L134.274 212.598ZM153.809 171.708C153.809 182.27 145.045 190.862 134.273 190.862C123.502 190.862 114.738 182.27 114.738 171.708V164.6C117.887 163.366 121.557 161.404 125.291 158.285C130.014 160.694 139.894 164.858 153.809 166.234V171.708V171.708ZM158.616 157.755C139.067 156.721 127.27 149.262 127.156 149.189C126.395 148.692 125.526 148.448 124.662 148.448C123.502 148.448 122.35 148.887 121.481 149.74C117.178 153.958 112.963 155.989 109.932 156.967V152.857C109.932 142.296 118.696 133.703 129.468 133.703H139.081C149.853 133.703 158.616 142.296 158.616 152.857V157.755Z" fill="#0D305B"/>
<path d="M66.6718 195.271V185.846C66.6724 173.02 56.0305 162.586 42.9494 162.586C29.9367 162.586 19.3416 172.912 19.2313 185.645C19.2307 185.661 19.2307 185.678 19.2301 185.694C19.2295 185.744 19.2259 185.795 19.2259 185.845V195.27C19.2259 202.918 23.0106 209.713 28.8388 213.955V220.634C28.8388 220.749 28.7735 220.853 28.6679 220.905L7.79972 231.136C2.98845 233.494 0 238.236 0 243.51V280.098C0 282.533 2.01349 284.507 4.49707 284.507C6.98065 284.507 8.99414 282.533 8.99414 280.098V243.51C8.99414 241.598 10.0776 239.878 11.8219 239.023L26.0392 232.053L38.4517 244.223V280.098C38.4517 282.533 40.4652 284.507 42.9488 284.507C45.4324 284.507 47.4459 282.533 47.4459 280.098V244.223L59.859 232.053L60.157 232.199C60.8028 232.516 61.4887 232.665 62.1645 232.665C63.814 232.665 65.4024 231.772 66.1903 230.227C67.3008 228.049 66.4007 225.401 64.1792 224.312L57.2303 220.906C57.1248 220.854 57.0588 220.75 57.0588 220.634V213.956C62.887 209.714 66.6718 202.918 66.6718 195.271ZM42.9494 171.404C51.0711 171.404 57.6782 177.883 57.6782 185.845V186.06C45.7676 185.619 34.3708 183.581 28.6451 182.407C30.2233 176.099 36.0365 171.404 42.9494 171.404ZM42.9494 236.162L34.3636 227.743C36.5402 226.036 37.8336 223.45 37.8336 220.634V217.979C39.4825 218.336 41.1932 218.53 42.9494 218.53C44.7057 218.53 46.4164 218.336 48.0653 217.979V220.634C48.0653 223.45 49.3586 226.036 51.5352 227.744L42.9494 236.162ZM42.9494 209.712C34.8277 209.712 28.2206 203.234 28.2206 195.271V191.334C34.6514 192.611 45.8377 194.483 57.6788 194.887V195.271C57.6782 203.234 51.0711 209.712 42.9494 209.712Z" fill="#0D305B"/>
<path d="M23.723 252.126C21.2394 252.126 19.226 254.1 19.226 256.535V280.098C19.226 282.533 21.2394 284.507 23.723 284.507C26.2066 284.507 28.2201 282.533 28.2201 280.098V256.535C28.2201 254.1 26.2072 252.126 23.723 252.126Z" fill="#0D305B"/>
<path d="M306.662 24.1335C306.048 22.6696 304.683 21.6402 303.083 21.4362L264.656 16.5309C262.194 16.2134 259.936 17.9189 259.616 20.3339C259.295 22.7484 261.032 24.9612 263.495 25.2752L285.163 28.0412L3.63849 141.382C1.34079 142.307 0.242905 144.883 1.18669 147.135C1.90023 148.84 3.57853 149.871 5.34798 149.871C5.91701 149.871 6.49563 149.765 7.05447 149.539L288.527 36.2211L275.136 53.0683C273.61 54.9889 273.96 57.7591 275.919 59.2564C276.741 59.8837 277.714 60.1876 278.68 60.1876C280.019 60.1876 281.343 59.6039 282.23 58.488L306.05 28.5186C307.041 27.2705 307.275 25.5973 306.662 24.1335Z" fill="#0D305B"/>
</g>
<defs>
<clipPath id="clip0">
<rect width="307" height="301" fill="white"/>
</clipPath>
</defs>
</svg>
