<svg width="403" height="403" viewBox="0 0 403 403" fill="none" xmlns="http://www.w3.org/2000/svg">
<path d="M201.5 0C90.3929 0 0 90.3929 0 201.5C0 312.607 90.3929 403 201.5 403C312.607 403 403 312.607 403 201.5C403 90.3929 312.607 0 201.5 0ZM201.5 389.567C97.8014 389.567 13.4333 305.199 13.4333 201.5C13.4333 97.8014 97.8014 13.4333 201.5 13.4333C305.199 13.4333 389.567 97.8014 389.567 201.5C389.567 305.199 305.199 389.567 201.5 389.567Z" fill="#4b4f5a"/>
<path d="M201.5 40.3C197.792 40.3 194.783 43.3024 194.783 47.0167V201.5H94.0333C90.3257 201.5 87.3167 204.502 87.3167 208.217C87.3167 211.931 90.3257 214.933 94.0333 214.933H201.5C205.208 214.933 208.217 211.931 208.217 208.217V47.0167C208.217 43.3024 205.208 40.3 201.5 40.3Z" fill="#4b4f5a"/>
</svg>
