<svg width="385" height="385" viewBox="0 0 385 385" fill="none" xmlns="http://www.w3.org/2000/svg">
<g clip-path="url(#clip0)">
<path d="M384.923 147.184C384.883 146.741 384.795 146.305 384.66 145.881C384.572 145.503 384.45 145.134 384.295 144.777C384.115 144.429 383.9 144.1 383.653 143.795C383.406 143.433 383.119 143.1 382.8 142.8C382.697 142.711 382.652 142.588 382.543 142.499L320.831 94.5706V44.897C320.831 34.2654 312.212 25.6461 301.58 25.6461H232.039L204.195 4.02707C197.316 -1.33764 187.671 -1.33764 180.792 4.02707L152.942 25.6461H83.4011C72.7694 25.6461 64.1501 34.2646 64.1501 44.897V94.5713L2.45749 142.499C2.34845 142.59 2.30333 142.712 2.20106 142.801C1.88146 143.1 1.59495 143.434 1.34755 143.796C1.1009 144.1 0.885826 144.429 0.7061 144.778C0.550438 145.134 0.428616 145.504 0.340633 145.882C0.206778 146.299 0.118795 146.729 0.0774355 147.166C0.0774355 147.3 0.000732422 147.416 0.000732422 147.551V365.746C0.00975632 369.828 1.33025 373.798 3.76746 377.072C3.80581 377.13 3.81258 377.201 3.85694 377.252C3.90206 377.303 3.99832 377.361 4.06224 377.431C7.66728 382.175 13.2741 384.972 19.2322 384.997H365.75C371.731 384.979 377.361 382.169 380.971 377.4C381.022 377.336 381.099 377.316 381.144 377.252C381.189 377.188 381.195 377.131 381.234 377.073C383.671 373.798 384.992 369.828 385.001 365.747V147.569C385 147.434 384.93 147.318 384.923 147.184ZM188.64 14.1526C190.881 12.3719 194.054 12.3719 196.295 14.1526L211.099 25.6453H173.881L188.64 14.1526ZM20.8489 372.164L188.641 241.828C190.883 240.05 194.054 240.05 196.296 241.828L364.132 372.164H20.8489ZM372.167 362.159L204.195 231.701C197.315 226.341 187.672 226.341 180.792 231.701L12.8147 362.159V157.342L117.97 238.998C120.772 241.171 124.804 240.661 126.977 237.859C129.149 235.057 128.639 231.025 125.837 228.852L19.0073 145.9L64.1509 110.818V160.402C64.1509 163.946 67.0242 166.819 70.5676 166.819C74.1117 166.819 76.9843 163.946 76.9843 160.402V44.8963C76.9843 41.3522 79.8569 38.4795 83.4011 38.4795H301.579C305.123 38.4795 307.995 41.3522 307.995 44.8963V160.402C307.995 163.946 310.868 166.819 314.412 166.819C317.956 166.819 320.829 163.946 320.829 160.402V110.818L365.972 145.9L258.956 229C257.116 230.395 256.166 232.672 256.471 234.962C256.776 237.252 258.289 239.201 260.431 240.065C262.574 240.929 265.015 240.576 266.824 239.139L372.165 157.342V362.159H372.167Z" fill="#4b4f5a"/>
<path d="M269.494 153.985V128.318C269.494 85.7895 235.018 51.3137 192.49 51.3137C149.962 51.3137 115.486 85.7895 115.486 128.318C115.486 170.846 149.962 205.322 192.49 205.322C196.034 205.322 198.907 202.449 198.907 198.905C198.907 195.361 196.034 192.488 192.49 192.488C157.05 192.488 128.321 163.758 128.321 128.318C128.321 92.8785 157.05 64.1487 192.49 64.1487C227.93 64.1487 256.66 92.8785 256.66 128.318V153.986C256.66 161.074 250.914 166.82 243.826 166.82C236.737 166.82 230.991 161.074 230.991 153.986V128.318C230.991 124.774 228.119 121.902 224.575 121.902C221.031 121.902 218.158 124.774 218.158 128.318C218.158 142.494 206.666 153.986 192.49 153.986C178.314 153.986 166.823 142.494 166.823 128.318C166.823 114.143 178.314 102.651 192.49 102.651C196.034 102.651 198.907 99.7781 198.907 96.2339C198.907 92.6898 196.034 89.8172 192.49 89.8172C175.258 89.7788 160.099 101.195 155.376 117.767C150.654 134.34 157.517 152.032 172.181 161.083C186.845 170.134 205.737 168.339 218.434 156.689C219.831 170.259 231.626 180.349 245.249 179.628C258.873 178.906 269.537 167.628 269.494 153.985Z" fill="#4b4f5a"/>
</g>
<defs>
<clipPath id="clip0">
<rect width="385" height="385" fill="white"/>
</clipPath>
</defs>
</svg>
