<svg width="150" viewBox="0 0 342 332" fill="none" xmlns="http://www.w3.org/2000/svg">
<path d="M281.906 131.581L342 97.246L171.003 0.13446L0 97.246L60.0941 131.581L0 165.704L60.0941 200.04L0 234.163L171.003 331.859L342 234.163L281.906 200.04L342 165.704L281.906 131.581ZM171.003 14.4485L316.851 97.2771L171.003 180.61L25.1492 97.2771L171.003 14.4485ZM72.6594 138.757L171.003 194.942L269.347 138.757L316.851 165.736L171.003 249.068L25.1492 165.736L72.6594 138.757ZM316.851 234.194L171.003 317.527L25.1492 234.194L72.6594 207.215L171.003 263.401L269.347 207.215L316.851 234.194Z" fill="#0D305B"/>
</svg>
