<svg width="150"  viewBox="0 0 304 304" fill="none" xmlns="http://www.w3.org/2000/svg">
<path d="M27.2128 234.949C25.631 234.949 24.0863 234.16 23.1841 232.727C8.01794 208.564 0 180.653 0 152C0 123.372 8.01331 95.4662 23.1702 71.308C24.5664 69.0837 27.498 68.4042 29.7153 69.8097C31.9396 71.2036 32.6099 74.1329 31.2113 76.3572C17.01 98.9985 9.5 125.158 9.5 152C9.5 178.86 17.0146 205.029 31.2322 227.673C32.6284 229.895 31.9535 232.827 29.7408 234.223C28.9523 234.712 28.0779 234.949 27.2128 234.949V234.949Z" fill="#0D305B"/>
<path d="M152 304C123.363 304 95.4569 295.987 71.308 280.83C69.0837 279.438 68.4135 276.507 69.8097 274.285C71.2036 272.06 74.1376 271.381 76.3572 272.789C98.9893 286.99 125.149 294.5 152 294.5C178.856 294.5 205.015 286.99 227.647 272.789C229.867 271.385 232.803 272.06 234.195 274.285C235.591 276.507 234.916 279.438 232.697 280.83C208.548 295.987 180.646 304 152 304V304Z" fill="#0D305B"/>
<path d="M276.801 234.93C275.936 234.93 275.069 234.694 274.285 234.204C272.06 232.813 271.39 229.881 272.789 227.659C286.99 205.025 294.5 178.86 294.5 152C294.5 125.154 286.995 98.9985 272.798 76.3618C271.402 74.1376 272.074 71.2082 274.294 69.8166C276.511 68.4042 279.447 69.093 280.839 71.3126C295.991 95.4662 304 123.368 304 152C304 180.653 295.987 208.559 280.83 232.704C279.932 234.142 278.383 234.93 276.801 234.93Z" fill="#0D305B"/>
<path d="M230.203 31.9628C229.341 31.9628 228.471 31.7262 227.682 31.2368C205.039 17.0146 178.865 9.5 152 9.5C125.144 9.5 98.9846 17.01 76.3525 31.2113C74.1283 32.6029 71.192 31.9349 69.805 29.7153C68.4088 27.4934 69.0837 24.5618 71.3033 23.1702C95.4523 8.01331 123.354 0 152 0C180.658 0 208.573 8.01794 232.736 23.1887C234.953 24.585 235.624 27.5166 234.227 29.7408C233.33 31.1742 231.785 31.9628 230.203 31.9628Z" fill="#0D305B"/>
<path d="M151.796 246.796C99.4137 246.796 56.7959 204.178 56.7959 151.796C56.7959 99.4137 99.4137 56.7959 151.796 56.7959C204.178 56.7959 246.796 99.4137 246.796 151.796C246.796 204.178 204.178 246.796 151.796 246.796ZM151.796 66.2959C104.653 66.2959 66.2959 104.653 66.2959 151.796C66.2959 198.939 104.653 237.296 151.796 237.296C198.939 237.296 237.296 198.939 237.296 151.796C237.296 104.653 198.939 66.2959 151.796 66.2959Z" fill="#0D305B"/>
<path d="M156.75 118.75C148.894 118.75 142.5 112.356 142.5 104.5C142.5 96.6444 148.894 90.25 156.75 90.25C159.378 90.25 161.5 92.3722 161.5 95C161.5 97.6278 159.378 99.75 156.75 99.75C154.129 99.75 152 101.879 152 104.5C152 107.121 154.129 109.25 156.75 109.25C159.378 109.25 161.5 111.372 161.5 114C161.5 116.628 159.378 118.75 156.75 118.75Z" fill="#0D305B"/>
<path d="M180.5 137.75C172.644 137.75 166.25 131.356 166.25 123.5C166.25 115.644 172.644 109.25 180.5 109.25C183.128 109.25 185.25 111.372 185.25 114C185.25 116.628 183.128 118.75 180.5 118.75C177.879 118.75 175.75 120.879 175.75 123.5C175.75 126.121 177.879 128.25 180.5 128.25C183.128 128.25 185.25 130.372 185.25 133C185.25 135.628 183.128 137.75 180.5 137.75Z" fill="#0D305B"/>
<path d="M142.5 156.75C134.644 156.75 128.25 150.356 128.25 142.5C128.25 134.644 134.644 128.25 142.5 128.25C145.128 128.25 147.25 130.372 147.25 133C147.25 135.628 145.128 137.75 142.5 137.75C139.879 137.75 137.75 139.879 137.75 142.5C137.75 145.121 139.879 147.25 142.5 147.25C145.128 147.25 147.25 149.372 147.25 152C147.25 154.628 145.128 156.75 142.5 156.75Z" fill="#0D305B"/>
<path d="M194.75 175.75C186.894 175.75 180.5 169.356 180.5 161.5C180.5 153.644 186.894 147.25 194.75 147.25C197.378 147.25 199.5 149.372 199.5 152C199.5 154.628 197.378 156.75 194.75 156.75C192.129 156.75 190 158.879 190 161.5C190 164.121 192.129 166.25 194.75 166.25C197.378 166.25 199.5 168.372 199.5 171C199.5 173.628 197.378 175.75 194.75 175.75Z" fill="#0D305B"/>
<path d="M221.916 99.75H156.75C154.122 99.75 152 97.6278 152 95C152 92.3722 154.122 90.25 156.75 90.25H221.916C224.542 90.25 226.666 92.3722 226.666 95C226.666 97.6278 224.537 99.75 221.916 99.75V99.75Z" fill="#0D305B"/>
<path d="M180.5 118.75H156.75C154.122 118.75 152 116.628 152 114C152 111.372 154.122 109.25 156.75 109.25H180.5C183.128 109.25 185.25 111.372 185.25 114C185.25 116.628 183.128 118.75 180.5 118.75Z" fill="#0D305B"/>
<path d="M180.5 137.75H142.5C139.872 137.75 137.75 135.628 137.75 133C137.75 130.372 139.872 128.25 142.5 128.25H180.5C183.128 128.25 185.25 130.372 185.25 133C185.25 135.628 183.128 137.75 180.5 137.75Z" fill="#0D305B"/>
<path d="M194.75 156.75H142.5C139.872 156.75 137.75 154.628 137.75 152C137.75 149.372 139.872 147.25 142.5 147.25H194.75C197.378 147.25 199.5 149.372 199.5 152C199.5 154.628 197.378 156.75 194.75 156.75Z" fill="#0D305B"/>
<path d="M239.984 175.75H194.75C192.122 175.75 190 173.628 190 171C190 168.372 192.122 166.25 194.75 166.25H239.984C242.612 166.25 244.734 168.372 244.734 171C244.734 173.628 242.612 175.75 239.984 175.75V175.75Z" fill="#0D305B"/>
<path d="M104.5 194.75C101.872 194.75 99.75 192.628 99.75 190C99.75 187.372 101.872 185.25 104.5 185.25C107.121 185.25 109.25 183.121 109.25 180.5C109.25 177.879 107.121 175.75 104.5 175.75C101.872 175.75 99.75 173.628 99.75 171C99.75 168.372 101.872 166.25 104.5 166.25C112.356 166.25 118.75 172.644 118.75 180.5C118.75 188.356 112.356 194.75 104.5 194.75Z" fill="#0D305B"/>
<path d="M128.25 213.75C125.622 213.75 123.5 211.628 123.5 209C123.5 206.372 125.622 204.25 128.25 204.25C130.871 204.25 133 202.121 133 199.5C133 196.879 130.871 194.75 128.25 194.75C125.622 194.75 123.5 192.628 123.5 190C123.5 187.372 125.622 185.25 128.25 185.25C136.106 185.25 142.5 191.644 142.5 199.5C142.5 207.356 136.106 213.75 128.25 213.75Z" fill="#0D305B"/>
<path d="M128.25 194.75H104.5C101.872 194.75 99.75 192.628 99.75 190C99.75 187.372 101.872 185.25 104.5 185.25H128.25C130.878 185.25 133 187.372 133 190C133 192.628 130.878 194.75 128.25 194.75Z" fill="#0D305B"/>
<path d="M128.25 213.75H82.0048C79.377 213.75 77.2548 211.628 77.2548 209C77.2548 206.372 79.377 204.25 82.0048 204.25H128.25C130.878 204.25 133 206.372 133 209C133 211.628 130.878 213.75 128.25 213.75Z" fill="#0D305B"/>
<path d="M104.5 175.75H63.5985C60.9707 175.75 58.8485 173.628 58.8485 171C58.8485 168.372 60.9707 166.25 63.5985 166.25H104.5C107.128 166.25 109.25 168.372 109.25 171C109.25 173.628 107.128 175.75 104.5 175.75Z" fill="#0D305B"/>
<path d="M47.5 85.5C26.5471 85.5 9.5 68.4529 9.5 47.5C9.5 26.5471 26.5471 9.5 47.5 9.5C68.4529 9.5 85.5 26.5471 85.5 47.5C85.5 68.4529 68.4529 85.5 47.5 85.5ZM47.5 19C31.7819 19 19 31.7819 19 47.5C19 63.2181 31.7819 76 47.5 76C63.2181 76 76 63.2181 76 47.5C76 31.7819 63.2181 19 47.5 19Z" fill="#0D305B"/>
<path d="M47.5 61.75C39.6444 61.75 33.25 55.3556 33.25 47.5C33.25 39.6444 39.6444 33.25 47.5 33.25C55.3556 33.25 61.75 39.6444 61.75 47.5C61.75 55.3556 55.3556 61.75 47.5 61.75ZM47.5 42.75C44.8792 42.75 42.75 44.8792 42.75 47.5C42.75 50.1208 44.8792 52.25 47.5 52.25C50.1208 52.25 52.25 50.1208 52.25 47.5C52.25 44.8792 50.1208 42.75 47.5 42.75Z" fill="#0D305B"/>
<path d="M66.4582 79.5625C63.9672 79.5625 61.8729 77.6235 61.7221 75.107C61.2559 67.6156 55.0146 61.75 47.5 61.75C39.9853 61.75 33.744 67.6156 33.2778 75.107C33.1224 77.7233 30.8216 79.7202 28.2425 79.5579C25.6263 79.3955 23.6317 77.1411 23.7917 74.5226C24.5664 62.0353 34.9732 52.25 47.5 52.25C60.0267 52.25 70.4336 62.0353 71.2036 74.5179C71.3636 77.1341 69.369 79.3862 66.7528 79.5532C66.6577 79.5579 66.5579 79.5625 66.4582 79.5625Z" fill="#0D305B"/>
<path d="M256.5 85.5C235.547 85.5 218.5 68.4529 218.5 47.5C218.5 26.5471 235.547 9.5 256.5 9.5C277.453 9.5 294.5 26.5471 294.5 47.5C294.5 68.4529 277.453 85.5 256.5 85.5ZM256.5 19C240.782 19 228 31.7819 228 47.5C228 63.2181 240.782 76 256.5 76C272.218 76 285 63.2181 285 47.5C285 31.7819 272.218 19 256.5 19Z" fill="#0D305B"/>
<path d="M256.5 61.75C248.644 61.75 242.25 55.3556 242.25 47.5C242.25 39.6444 248.644 33.25 256.5 33.25C264.356 33.25 270.75 39.6444 270.75 47.5C270.75 55.3556 264.356 61.75 256.5 61.75ZM256.5 42.75C253.879 42.75 251.75 44.8792 251.75 47.5C251.75 50.1208 253.879 52.25 256.5 52.25C259.121 52.25 261.25 50.1208 261.25 47.5C261.25 44.8792 259.121 42.75 256.5 42.75Z" fill="#0D305B"/>
<path d="M275.447 79.5625C272.958 79.5625 270.864 77.6235 270.713 75.107C270.251 67.6156 264.005 61.75 256.491 61.75C248.976 61.75 242.735 67.6156 242.269 75.107C242.113 77.7233 239.866 79.7202 237.233 79.5579C234.617 79.3955 232.622 77.1411 232.782 74.5226C233.557 62.0353 243.964 52.25 256.491 52.25C269.015 52.25 279.424 62.0353 280.192 74.5179C280.354 77.1341 278.36 79.3862 275.741 79.5532C275.646 79.5579 275.546 79.5625 275.447 79.5625V79.5625Z" fill="#0D305B"/>
<path d="M47.5 294.5C26.5471 294.5 9.5 277.453 9.5 256.5C9.5 235.547 26.5471 218.5 47.5 218.5C68.4529 218.5 85.5 235.547 85.5 256.5C85.5 277.453 68.4529 294.5 47.5 294.5ZM47.5 228C31.7819 228 19 240.782 19 256.5C19 272.218 31.7819 285 47.5 285C63.2181 285 76 272.218 76 256.5C76 240.782 63.2181 228 47.5 228Z" fill="#0D305B"/>
<path d="M47.5 270.75C39.6444 270.75 33.25 264.356 33.25 256.5C33.25 248.644 39.6444 242.25 47.5 242.25C55.3556 242.25 61.75 248.644 61.75 256.5C61.75 264.356 55.3556 270.75 47.5 270.75ZM47.5 251.75C44.8792 251.75 42.75 253.879 42.75 256.5C42.75 259.121 44.8792 261.25 47.5 261.25C50.1208 261.25 52.25 259.121 52.25 256.5C52.25 253.879 50.1208 251.75 47.5 251.75Z" fill="#0D305B"/>
<path d="M66.4582 288.563C63.9672 288.563 61.8729 286.624 61.7221 284.107C61.2559 276.616 55.0146 270.75 47.5 270.75C39.9853 270.75 33.744 276.616 33.2778 284.107C33.1224 286.728 30.8216 288.699 28.2425 288.558C25.6263 288.396 23.6317 286.141 23.7917 283.523C24.5664 271.035 34.9732 261.25 47.5 261.25C60.0267 261.25 70.4336 271.035 71.2036 283.518C71.3636 286.134 69.369 288.386 66.7528 288.553C66.6577 288.558 66.5579 288.563 66.4582 288.563Z" fill="#0D305B"/>
<path d="M256.5 294.5C235.547 294.5 218.5 277.453 218.5 256.5C218.5 235.547 235.547 218.5 256.5 218.5C277.453 218.5 294.5 235.547 294.5 256.5C294.5 277.453 277.453 294.5 256.5 294.5ZM256.5 228C240.782 228 228 240.782 228 256.5C228 272.218 240.782 285 256.5 285C272.218 285 285 272.218 285 256.5C285 240.782 272.218 228 256.5 228Z" fill="#0D305B"/>
<path d="M256.5 270.75C248.644 270.75 242.25 264.356 242.25 256.5C242.25 248.644 248.644 242.25 256.5 242.25C264.356 242.25 270.75 248.644 270.75 256.5C270.75 264.356 264.356 270.75 256.5 270.75ZM256.5 251.75C253.879 251.75 251.75 253.879 251.75 256.5C251.75 259.121 253.879 261.25 256.5 261.25C259.121 261.25 261.25 259.121 261.25 256.5C261.25 253.879 259.121 251.75 256.5 251.75Z" fill="#0D305B"/>
<path d="M275.447 288.563C272.958 288.563 270.864 286.624 270.713 284.107C270.251 276.616 264.005 270.75 256.491 270.75C248.976 270.75 242.735 276.616 242.269 284.107C242.113 286.728 239.866 288.699 237.233 288.558C234.617 288.396 232.622 286.141 232.782 283.523C233.557 271.035 243.964 261.25 256.491 261.25C269.015 261.25 279.424 271.035 280.192 283.518C280.354 286.134 278.36 288.386 275.741 288.553C275.646 288.558 275.546 288.563 275.447 288.563V288.563Z" fill="#0D305B"/>
</svg>
