<svg width="100" height="117" viewBox="0 0 100 117" fill="none" xmlns="http://www.w3.org/2000/svg">
<path d="M95.8762 28.87L54.1248 1.13195C51.8575 -0.377316 48.1435 -0.377316 45.8752 1.13195L4.12946 28.8719C1.85746 30.3793 0 33.8446 0 36.5738V80.0927C0 82.8218 1.85746 86.2872 4.12946 87.7945L45.8752 115.535C48.1435 117.044 51.8584 117.044 54.1248 115.535L95.8762 87.7926C98.1435 86.2834 100 82.8199 100 80.0908V36.5709C99.9991 33.8446 98.1435 30.3793 95.8762 28.87Z" fill="white"/>
<path d="M78.9894 31.44C78.736 31.16 78.376 31 78 31H22C21.6214 31 21.264 31.16 21.0106 31.44C20.7573 31.7174 20.6346 32.0906 20.672 32.4666L26.0054 85.8C26.056 86.32 26.4108 86.7654 26.9094 86.9306L50.9094 94.9306C51.0454 94.9786 51.1894 95 51.3308 95C51.4908 95 51.6481 94.9706 51.8028 94.9146L73.1361 86.9146C73.6108 86.7386 73.9441 86.304 73.9948 85.8L79.3281 32.4666C79.3654 32.0934 79.2426 31.7174 78.9894 31.44ZM71.4186 84.7094L51.304 92.2534L28.5706 84.6746L23.4694 33.6666H76.5228L71.4186 84.7094Z" fill="black"/>
<path d="M67.3306 44.3334H35.3306C34.952 44.3334 34.5946 44.4934 34.3413 44.7734C34.0879 45.0507 33.9653 45.424 34.0026 45.8L35.336 59.1334C35.4054 59.8134 35.9786 60.3334 36.664 60.3334H63.1094L60.7974 75.36L51.304 78.92L40.4854 75.312L39.304 69.4054C39.16 68.6854 38.4614 68.2134 37.736 68.36C37.016 68.504 36.5466 69.2054 36.6906 69.928L38.024 76.5946C38.1174 77.064 38.456 77.4452 38.9094 77.5972L50.9094 81.5972C51.0454 81.6452 51.1894 81.6666 51.3308 81.6666C51.4908 81.6666 51.6481 81.6372 51.8001 81.5812L62.4668 77.5812C62.9174 77.4132 63.2428 77.0132 63.3148 76.5359L65.9814 59.2025C66.04 58.8159 65.928 58.4265 65.6748 58.1305C65.4241 57.8345 65.0534 57.6665 64.6641 57.6665H37.872L36.8054 47H67.3308C68.0668 47 68.6641 46.4026 68.6641 45.6666C68.6641 44.9306 68.0666 44.3334 67.3306 44.3334Z" fill="black"/>
</svg>
