<svg width="100" height="117" viewBox="0 0 100 117" fill="none" xmlns="http://www.w3.org/2000/svg">
<path d="M95.8762 28.87L54.1248 1.13195C51.8575 -0.377316 48.1435 -0.377316 45.8752 1.13195L4.12946 28.8719C1.85746 30.3793 0 33.8446 0 36.5738V80.0927C0 82.8218 1.85746 86.2872 4.12946 87.7945L45.8752 115.535C48.1435 117.044 51.8584 117.044 54.1248 115.535L95.8762 87.7926C98.1435 86.2834 100 82.8199 100 80.0908V36.5709C99.9991 33.8446 98.1435 30.3793 95.8762 28.87Z" fill="white"/>
<g clip-path="url(#clip0)">
<path d="M82.0002 76.8173V69.4263L79.3265 68.7636C79.1261 68.1658 78.889 67.587 78.6151 67.0341L80.0341 64.6795L74.8073 59.4537L72.4527 60.8712C71.8993 60.5978 71.321 60.3602 70.7242 60.1594L70.0615 57.4875H62.6705L62.0078 60.1603C61.4109 60.3602 60.8327 60.5978 60.2797 60.8726L57.9247 59.4547L52.6979 64.6805L53.218 65.5431L46.8237 64.4772V64.2248C49.0289 63.2086 50.8648 61.5311 52.0767 59.4418H53.6636C55.2796 59.4418 56.595 58.1269 56.595 56.5104C58.2109 56.5104 59.5263 55.1955 59.5263 53.579V49.6705C59.5263 48.3986 58.7062 47.3236 57.5721 46.919V43.6613C57.5721 35.1215 50.6244 28.1738 42.0855 28.1738C37.9485 28.1738 34.0595 29.784 31.1348 32.7106L30.6816 33.162C28.0899 33.9359 26.3041 36.3152 26.3041 39.0424V46.919C25.1695 47.3236 24.3498 48.3986 24.3498 49.6705V53.579C24.3498 55.1955 25.6647 56.5104 27.2812 56.5104H30.5985C31.4865 59.9432 33.8882 62.7663 37.0524 64.2248V64.4772L29.5198 65.7325C27.0894 66.1381 25.0578 67.8285 24.2157 70.1425L21 78.9843H54.0152C54.0505 79.0587 54.0806 79.136 54.1168 79.2081L52.6979 81.5631L57.9247 86.7889L60.2797 85.3709C60.8327 85.6443 61.4109 85.8819 62.0078 86.0833L62.6705 88.7556H70.0615L70.7242 86.0833C71.321 85.8829 71.8993 85.6453 72.4527 85.3709L74.8073 86.7889L80.0341 81.5631L78.6151 79.2081C78.889 78.656 79.1261 78.0778 79.3265 77.4785L82.0002 76.8173ZM51.591 77.03H42.9152V71.0685C45.0861 70.6263 46.724 68.7355 46.806 66.4549L53.8482 67.6281C53.687 67.9988 53.5352 68.3748 53.4055 68.7636L50.7322 69.4263V76.8173L51.591 77.03ZM39.0067 64.9186C39.9457 65.1619 40.9247 65.3045 41.9381 65.3045C42.951 65.3045 43.93 65.1619 44.8694 64.9186V66.2817C44.8694 67.8981 43.5541 69.213 41.9381 69.213C40.3216 69.213 39.0067 67.8981 39.0067 66.2817V64.9186ZM53.6636 57.4875H52.9794C53.093 57.1683 53.1912 56.843 53.2776 56.5104H54.6407C54.6407 57.05 54.2018 57.4875 53.6636 57.4875V57.4875ZM57.5721 53.579C57.5721 54.1186 57.1331 54.5562 56.595 54.5562V50.6477H54.6407V54.5562H53.6135C53.6407 54.2327 53.6636 53.9092 53.6636 53.579V48.6934H56.595C57.1331 48.6934 57.5721 49.1314 57.5721 49.6705V53.579ZM27.2812 54.5562C26.7425 54.5562 26.3041 54.1186 26.3041 53.579V49.6705C26.3041 49.1314 26.7425 48.6934 27.2812 48.6934H30.2126V53.579C30.2126 53.9092 30.235 54.2327 30.2622 54.5562H27.2812ZM30.2126 44.7849V46.7392H28.2583V39.0424C28.2583 37.1196 29.5608 35.4507 31.4268 34.9845L31.6897 34.9201L32.5175 34.0923C35.0724 31.535 38.4699 30.128 42.0855 30.128C49.5466 30.128 55.6178 36.1988 55.6178 43.6613V46.7392H53.6636V44.7849H52.6865C49.1668 44.7849 45.858 43.4151 43.3694 40.9265L41.9381 39.4937L40.5072 40.9265C38.0176 43.4151 34.7089 44.7849 31.1897 44.7849H30.2126ZM32.1668 53.579V46.7091C35.8406 46.4763 39.2624 44.9347 41.8889 42.3082L41.9381 42.2591L41.9867 42.3082C44.6132 44.9347 48.0351 46.4763 51.7093 46.7091V53.579C51.7093 54.9689 51.413 56.2895 50.8873 57.4875H45.6667C45.2621 56.3534 44.1872 55.5333 42.9152 55.5333H40.9609C39.3445 55.5333 38.0296 56.8487 38.0296 58.4647C38.0296 60.0811 39.3445 61.396 40.9609 61.396H42.9152C44.1872 61.396 45.2621 60.5764 45.6667 59.4418H49.7365C47.9511 61.8097 45.1252 63.3503 41.9381 63.3503C36.55 63.3503 32.1668 58.9671 32.1668 53.579V53.579ZM43.8923 58.4647C43.8923 59.0043 43.4534 59.4418 42.9152 59.4418H40.9609C40.4223 59.4418 39.9838 59.0043 39.9838 58.4647C39.9838 57.9255 40.4223 57.4875 40.9609 57.4875H42.9152C43.4534 57.4875 43.8923 57.9255 43.8923 58.4647V58.4647ZM26.0526 70.8099C26.6538 69.1577 28.1056 67.9497 29.8409 67.6596L37.0696 66.4549C37.1517 68.7355 38.7896 70.6263 40.9609 71.0685V77.03H30.4869L31.1601 74.3353L29.2645 73.8625L28.4721 77.03H23.7906L26.0526 70.8099ZM77.7768 75.8506L77.6194 76.3922C77.3751 77.2343 77.0459 78.0358 76.6394 78.7725L76.3679 79.2658L77.5717 81.263L74.5072 84.3284L72.51 83.1247L72.0167 83.3962C71.2781 83.8027 70.4765 84.1328 69.6363 84.3771L69.0953 84.5336L68.5333 86.8013H64.1987L63.6367 84.5326L63.0956 84.3761C62.2554 84.1319 61.4548 83.8017 60.7153 83.3952L60.222 83.1237L58.2248 84.3275L55.1603 81.262L56.364 79.2648L56.0926 78.7715C55.6861 78.0348 55.3569 77.2343 55.1126 76.3912L54.9551 75.8497L52.6865 75.2891V70.9545L54.9551 70.3925L55.1126 69.8514C55.3569 69.0088 55.6861 68.2078 56.0926 67.4711L56.364 66.9773L55.1603 64.9801L58.2248 61.9151L60.222 63.1189L60.7153 62.8474C61.4539 62.4409 62.2554 62.1103 63.0956 61.866L63.6367 61.71L64.1987 59.4418H68.5333L69.0953 61.7109L69.6363 61.8669C70.4765 62.1112 71.2771 62.4419 72.0167 62.8484L72.51 63.1198L74.5072 61.9161L77.5717 64.9811L76.3679 66.9783L76.6394 67.4721C77.0459 68.2087 77.3751 69.0088 77.6194 69.8524L77.7768 70.3934L80.046 70.9545V75.2891L77.7768 75.8506Z" fill="black"/>
<path d="M66.3662 63.3503C60.9782 63.3503 56.5949 67.7341 56.5949 73.1216C56.5949 78.5096 60.9782 82.8929 66.3662 82.8929C71.7538 82.8929 76.1375 78.5096 76.1375 73.1216C76.1375 67.7341 71.7538 63.3503 66.3662 63.3503ZM66.3662 80.9386C62.056 80.9386 58.5492 77.4318 58.5492 73.1216C58.5492 68.8118 62.056 65.3046 66.3662 65.3046C70.676 65.3046 74.1832 68.8118 74.1832 73.1216C74.1832 77.4318 70.676 80.9386 66.3662 80.9386Z" fill="black"/>
<path d="M66.3662 67.2588C63.1328 67.2588 60.5035 69.8882 60.5035 73.1216C60.5035 76.355 63.1328 78.9843 66.3662 78.9843V77.0301C64.2106 77.0301 62.4577 75.2772 62.4577 73.1216C62.4577 70.966 64.2106 69.2131 66.3662 69.2131C68.5213 69.2131 70.2747 70.966 70.2747 73.1216H72.229C72.229 69.8882 69.5991 67.2588 66.3662 67.2588Z" fill="black"/>
<path d="M37.0524 49.6705C37.0524 50.2102 36.6149 50.6477 36.0753 50.6477C35.5352 50.6477 35.0982 50.2102 35.0982 49.6705C35.0982 49.1309 35.5352 48.6934 36.0753 48.6934C36.6149 48.6934 37.0524 49.1309 37.0524 49.6705Z" fill="black"/>
<path d="M48.778 49.6705C48.778 50.2102 48.3404 50.6477 47.8008 50.6477C47.2607 50.6477 46.8237 50.2102 46.8237 49.6705C46.8237 49.1309 47.2607 48.6934 47.8008 48.6934C48.3404 48.6934 48.778 49.1309 48.778 49.6705Z" fill="black"/>
</g>
<defs>
<clipPath id="clip0">
<rect width="61" height="61" fill="white" transform="translate(21 28)"/>
</clipPath>
</defs>
</svg>
