<svg width="100" height="117" viewBox="0 0 100 117" fill="none" xmlns="http://www.w3.org/2000/svg">
<path d="M95.8762 28.87L54.1248 1.13195C51.8575 -0.377316 48.1435 -0.377316 45.8752 1.13195L4.12946 28.8719C1.85746 30.3793 0 33.8446 0 36.5738V80.0927C0 82.8218 1.85746 86.2872 4.12946 87.7945L45.8752 115.535C48.1435 117.044 51.8584 117.044 54.1248 115.535L95.8762 87.7926C98.1435 86.2834 100 82.8199 100 80.0908V36.5709C99.9991 33.8446 98.1435 30.3793 95.8762 28.87Z" fill="white"/>
<path d="M78.2099 28.8594C76.546 27.0495 73.209 28.0822 67.7078 32.1102C63.0345 35.5321 57.4289 40.7148 51.9237 46.704C43.7621 55.5831 37.557 64.3009 35.491 69.6834C35.1509 69.5493 34.7983 69.4421 34.4344 69.3638C32.2966 68.9038 29.9747 69.492 28.0637 70.9766C25.3215 73.1069 24.5953 76.1491 24.4898 76.6619C23.9125 79.0075 22.8192 81.2454 21.3269 83.1357C20.8469 83.7436 20.9017 84.6576 21.4504 85.1927C23.3679 87.0623 25.8207 88 28.3721 88C30.8309 88 33.3814 87.1288 35.6308 85.3812C36.6855 84.5618 37.4841 83.6557 37.6387 83.4764C39.55 81.2419 40.3615 78.3121 39.9589 75.6352C44.813 73.7421 53.2755 66.7395 61.8076 57.4572C67.3128 51.4679 72.0768 45.3693 75.222 40.2853C78.9244 34.3002 79.8738 30.6697 78.2099 28.8594ZM35.6577 81.467C35.585 81.5514 34.922 82.3114 34.0571 82.9831C30.9156 85.4233 27.0694 85.7055 24.2758 83.8267C25.5841 81.8753 26.5564 79.6755 27.115 77.3868V77.3867C27.1212 77.3611 27.1269 77.3352 27.1319 77.3091C27.1365 77.2858 27.6068 74.9518 29.6375 73.3743C30.9437 72.3594 32.5009 71.9513 33.9095 72.2542C35.0712 72.5039 36.0478 73.2253 36.6594 74.2852C37.8596 76.3652 37.4376 79.3863 35.6577 81.467ZM39.0364 72.8706C39.0086 72.8201 38.598 71.9131 37.8329 71.2389C38.492 69.3217 39.9111 66.7303 41.889 63.7546L46.132 68.3706C43.1471 70.7081 40.7013 72.2319 39.0364 72.8706ZM48.3233 66.5881L43.5314 61.3748C44.3594 60.2151 45.2554 59.0139 46.2102 57.7852L51.6258 63.6768C50.4796 64.7299 49.3758 65.7017 48.3233 66.5881ZM72.561 39.3001C69.5108 44.0961 65.0116 49.8046 59.8926 55.3735C57.7433 57.7117 55.6596 59.8387 53.6798 61.7443L47.9866 55.5506C49.7923 53.3283 51.7611 51.0476 53.8388 48.7874C58.9578 43.2183 64.2048 38.3236 68.6132 35.0049C74.0412 30.9188 75.9142 30.9123 76.2739 30.9658C76.3233 31.3568 76.3168 33.3952 72.561 39.3001Z" fill="black"/>
</svg>
