<svg width="100" height="117" viewBox="0 0 100 117" fill="none" xmlns="http://www.w3.org/2000/svg">
<path d="M95.8762 28.87L54.1248 1.13195C51.8575 -0.377316 48.1435 -0.377316 45.8752 1.13195L4.12946 28.8719C1.85746 30.3793 0 33.8446 0 36.5738V80.0927C0 82.8218 1.85746 86.2872 4.12946 87.7945L45.8752 115.535C48.1435 117.044 51.8584 117.044 54.1248 115.535L95.8762 87.7926C98.1435 86.2834 100 82.8199 100 80.0908V36.5709C99.9991 33.8446 98.1435 30.3793 95.8762 28.87Z" fill="white"/>
<path d="M20.2426 57C20.9298 57 21.4852 56.4355 21.4852 55.7372C21.4852 48.078 27.6175 41.8458 35.1538 41.8458H64.9763V53.166L82 40.583L64.9763 28V39.3202H35.1538C26.2469 39.3202 19 46.6851 19 55.7372C19 56.4355 19.5554 57 20.2426 57Z" fill="black"/>
<path d="M80.7377 58C80.0396 58 79.4753 58.5645 79.4753 59.2628C79.4753 66.922 73.2458 73.1542 65.5897 73.1542H35.2939V61.834L18 74.417L35.2939 87V75.6798H65.5897C74.6381 75.6798 82 68.3149 82 59.2628C82 58.5645 81.4357 58 80.7377 58Z" fill="black"/>
</svg>
