<svg width="100" height="117" viewBox="0 0 100 117" fill="none" xmlns="http://www.w3.org/2000/svg">
<path d="M95.8762 28.87L54.1248 1.13195C51.8575 -0.377316 48.1435 -0.377316 45.8752 1.13195L4.12946 28.8719C1.85746 30.3793 0 33.8446 0 36.5738V80.0927C0 82.8218 1.85746 86.2872 4.12946 87.7945L45.8752 115.535C48.1435 117.044 51.8584 117.044 54.1248 115.535L95.8762 87.7926C98.1435 86.2834 100 82.8199 100 80.0908V36.5709C99.9991 33.8446 98.1435 30.3793 95.8762 28.87Z" fill="white"/>
<path d="M71.9204 67.0796C68.5439 63.7033 64.5251 61.2038 60.1403 59.6907C64.8365 56.4562 67.9219 51.0429 67.9219 44.9219C67.9219 35.0398 59.8821 27 50 27C40.1179 27 32.0781 35.0398 32.0781 44.9219C32.0781 51.0429 35.1635 56.4562 39.8598 59.6907C35.475 61.2038 31.4562 63.7033 28.0797 67.0796C22.2246 72.9349 19 80.7196 19 89H23.8438C23.8438 74.5774 35.5774 62.8438 50 62.8438C64.4226 62.8438 76.1562 74.5774 76.1562 89H81C81 80.7196 77.7754 72.9349 71.9204 67.0796ZM50 58C42.7887 58 36.9219 52.1332 36.9219 44.9219C36.9219 37.7105 42.7887 31.8438 50 31.8438C57.2113 31.8438 63.0781 37.7105 63.0781 44.9219C63.0781 52.1332 57.2113 58 50 58Z" fill="black"/>
</svg>
