<svg width="100" height="117" viewBox="0 0 100 117" fill="none" xmlns="http://www.w3.org/2000/svg">
<path d="M95.8762 28.87L54.1248 1.13195C51.8575 -0.377316 48.1435 -0.377316 45.8752 1.13195L4.12946 28.8719C1.85746 30.3793 0 33.8446 0 36.5738V80.0927C0 82.8218 1.85746 86.2872 4.12946 87.7945L45.8752 115.535C48.1435 117.044 51.8584 117.044 54.1248 115.535L95.8762 87.7926C98.1435 86.2834 100 82.8199 100 80.0908V36.5709C99.9991 33.8446 98.1435 30.3793 95.8762 28.87Z" fill="white"/>
<path d="M70.9766 76.3939L70.0894 76.0381C74.551 71.075 77 64.7 77 58C77 52.5187 75.3429 47.2446 72.3236 42.811C72.287 42.739 72.2417 42.6741 72.1889 42.6175C70.8663 40.7111 69.2917 38.9627 67.4848 37.4257C67.1261 37.1206 66.5881 37.164 66.283 37.5227C65.9779 37.8814 66.0213 38.4196 66.3799 38.7246C67.8295 39.9577 69.1197 41.3359 70.2389 42.8276C68.4341 43.533 66.2678 44.1303 63.8494 44.6023C63.1818 42.6132 62.3613 40.7586 61.3966 39.0853C60.0965 36.8299 58.6011 35.0137 56.9713 33.678C59.5079 34.4032 61.9243 35.5268 64.1418 37.0248C64.532 37.2882 65.0619 37.1857 65.3256 36.7955C65.5891 36.4054 65.4865 35.8754 65.0963 35.6117C60.6308 32.5947 55.4105 31 50 31C42.7879 31 36.0078 33.8084 30.9083 38.9083C25.8084 44.0078 23 50.7882 23 58C23 64.7087 25.4524 71.0845 29.9213 76.0494L29.0453 76.3925C28.7226 76.509 25.9793 77.6033 25.9793 81.0914V84.1465C25.9793 84.6176 26.3609 85 26.8319 85H31.7366H32.5001H33.4096H37.772H39.382C39.4232 85 39.4634 84.9961 39.5029 84.9904C39.5426 84.9961 39.5826 85 39.6238 85H43.0931C43.5641 85 43.9457 84.6184 43.9457 84.1474C43.9457 83.6764 43.564 83.2948 43.0931 83.2948H40.4764V80.3253C40.4764 77.1925 42.9372 76.2913 43.0365 76.2563C43.0497 76.2519 43.0628 76.2471 43.0759 76.242L47.228 74.6159C47.2369 74.6256 47.2454 74.6357 47.2549 74.645L49.4615 76.7942C49.6208 76.9493 49.8344 77.0361 50.0564 77.0361C50.0609 77.0361 50.0654 77.0361 50.0698 77.0359C50.2967 77.0325 50.513 76.9385 50.6703 76.775L52.789 74.5766L56.9355 76.2394C56.9506 76.2456 56.9605 76.2494 56.9759 76.2544C57.0806 76.2912 59.5418 77.1927 59.5418 80.3253V83.2948H53.3054H46.7124H45.7578C45.2868 83.2948 44.9052 83.6765 44.9052 84.1474C44.9052 84.6184 45.2869 85 45.7578 85H46.7124H53.3054H60.3945H60.3946H60.3947H61.4825H62.2459H63.1555H67.5177H73.1861C73.6572 85 74.0388 84.6123 74.0388 84.1414V81.0914C74.039 77.6167 71.3163 76.5174 70.9766 76.3939ZM68.3967 75.3593L67.5562 75.0222V74.5371C68.4851 73.9923 69.199 73.1198 69.5382 72.079C70.7786 71.981 71.7584 70.9425 71.7584 69.6774C71.7584 68.925 71.4116 68.2525 70.8701 67.8098V66.2944C70.8701 63.3727 68.6776 60.955 65.8518 60.5962C65.884 60.0181 65.9063 59.4357 65.917 58.8526H75.279C75.074 65.0243 72.6497 70.8539 68.3967 75.3593ZM65.3185 73.4399H64.5409C63.0342 73.4399 61.8086 72.2142 61.8086 70.7078V68.4518C62.9193 68.3313 64.8866 67.9431 66.4023 66.6772C66.7418 67.2595 67.2671 67.8893 68.0508 68.257V70.7077C68.0507 72.2142 66.825 73.4399 65.3185 73.4399ZM65.8511 75.112V75.5847L64.901 76.5704L64.0084 75.701V75.1119C64.1831 75.1329 64.3606 75.145 64.541 75.145H65.3186C65.499 75.1451 65.6762 75.133 65.8511 75.112ZM60.9587 66.802C60.9578 66.802 60.9568 66.802 60.9559 66.802C60.9266 66.802 60.8975 66.8036 60.8689 66.8064C60.8597 66.8074 60.8507 66.8093 60.8416 66.8105C60.8224 66.8131 60.8032 66.8154 60.7844 66.8193C60.7715 66.8218 60.7592 66.8257 60.7465 66.829C60.7319 66.8327 60.7171 66.8359 60.7029 66.8403C60.6936 66.8431 60.6848 66.847 60.6757 66.8502V66.2945C60.6757 64.0664 62.4883 62.2538 64.7165 62.2538H65.1242C67.3522 62.2538 69.1646 64.0664 69.1646 66.2945V66.8432C69.1486 66.8381 69.1323 66.8341 69.1159 66.8299C69.1081 66.8277 69.1003 66.8252 69.0924 66.8232C67.9037 66.5529 67.515 64.9665 67.5121 64.9545C67.4382 64.6278 67.1797 64.3746 66.8514 64.3076C66.5231 64.2403 66.1861 64.3717 65.9897 64.6432C64.4457 66.7775 61.0039 66.802 60.9587 66.802ZM69.7559 70.252V69.103C69.9354 69.2312 70.0531 69.4407 70.0531 69.6776C70.0531 69.9145 69.9354 70.1238 69.7559 70.252ZM71.2396 44.2625C73.7094 48.0779 75.1236 52.5196 75.2787 57.1473H65.9166C65.8474 53.3094 65.3111 49.6077 64.3548 46.2366C66.9762 45.716 69.3135 45.0505 71.2396 44.2625ZM64.2112 57.1475H55.4846C55.4836 57.1474 55.4828 57.1475 55.4819 57.1475C54.3187 55.8616 52.6835 55.0121 50.8526 54.8707V47.5386C55.0367 47.4969 59.0743 47.149 62.6716 46.5443C63.613 49.8046 64.1413 53.4046 64.2112 57.1475ZM56.6899 66.051C56.6899 66.5525 56.3511 66.9753 55.8905 67.1053V64.9963C56.3511 65.1265 56.6899 65.5495 56.6899 66.051ZM50.8526 32.7526C54.2456 33.115 57.438 35.6325 59.9192 39.9369C60.79 41.4473 61.5376 43.116 62.154 44.9061C58.7164 45.4689 54.8584 45.7929 50.8525 45.8331V32.7526H50.8526ZM50.3119 56.553C53.2162 56.553 55.5789 58.9159 55.5789 61.8203V62.8622C55.5732 62.8577 55.5672 62.8537 55.5614 62.8491C55.549 62.8394 55.5365 62.8299 55.5235 62.821C55.5135 62.814 55.5031 62.8076 55.4928 62.801C55.48 62.7929 55.4674 62.7849 55.4541 62.7775C55.442 62.7707 55.4294 62.7647 55.417 62.7584C55.4051 62.7525 55.3932 62.7465 55.381 62.741C55.366 62.7344 55.3505 62.7289 55.3352 62.7231C55.3246 62.7191 55.314 62.715 55.3033 62.7114C55.2861 62.7057 55.2684 62.7012 55.2508 62.6966C55.243 62.6944 55.2353 62.6918 55.2272 62.6899C53.6076 62.3216 53.0945 60.2098 53.0901 60.1914C53.0162 59.8647 52.7577 59.6116 52.4294 59.5445C52.1011 59.477 51.7641 59.6086 51.5677 59.8801C49.5711 62.6404 45.1605 62.6687 45.1022 62.6687C45.1021 62.6687 45.102 62.6687 45.102 62.6687C45.1009 62.6687 45.1 62.6687 45.099 62.6687C45.0697 62.6687 45.0405 62.6702 45.012 62.673C45.003 62.6741 44.9943 62.6759 44.9854 62.6771C44.9661 62.6798 44.9465 62.6821 44.9275 62.6859C44.9154 62.6884 44.9035 62.6922 44.8914 62.6952C44.8762 62.6989 44.8607 62.7023 44.846 62.7069C44.8321 62.7112 44.8188 62.7168 44.8053 62.7217C44.793 62.7263 44.7801 62.7303 44.7679 62.7353C44.7523 62.742 44.7374 62.7498 44.7226 62.7571C44.7129 62.7618 44.703 62.7659 44.6936 62.7711C44.6782 62.7793 44.6638 62.7888 44.649 62.7979C44.6406 62.8033 44.6317 62.808 44.6233 62.8136C44.6096 62.8229 44.5966 62.8332 44.5833 62.8433C44.5748 62.8498 44.5659 62.8557 44.5576 62.8625C44.5498 62.869 44.5425 62.8762 44.5348 62.883V61.8202C44.5348 58.9158 46.8975 56.553 49.8018 56.553H50.3119ZM35.7888 57.1474C35.8588 53.4039 36.3873 49.8031 37.3288 46.5425C40.9312 47.148 44.9731 47.4967 49.1474 47.5387V54.8795C47.36 55.0469 45.7667 55.8908 44.6271 57.1531C44.5961 57.1497 44.5646 57.1475 44.5326 57.1475H35.7888V57.1474ZM44.2464 64.9875V67.1144C43.7683 66.9962 43.4125 66.565 43.4125 66.051C43.4124 65.537 43.7683 65.1059 44.2464 64.9875ZM49.1474 32.7526V45.8331C45.151 45.7926 41.29 45.4674 37.8468 44.9034C38.4631 43.1145 39.2104 41.4468 40.0808 39.9369C42.562 35.6325 45.7544 33.115 49.1474 32.7526ZM43.0193 33.6854C41.3932 35.0207 39.9009 36.834 38.6033 39.0852C37.639 40.7581 36.8187 42.6118 36.1512 44.6004C33.7359 44.1291 31.573 43.5331 29.7716 42.8304C33.0371 38.4867 37.6672 35.2244 43.0193 33.6854ZM28.7681 44.2665C30.6893 45.0516 33.027 45.7145 35.6459 46.2346C34.689 49.6062 34.1527 53.3086 34.0833 57.1474H24.7212C24.8789 52.4112 26.3444 48.0008 28.7681 44.2665ZM34.2623 75.1121C34.437 75.1331 34.6145 75.1451 34.7949 75.1451H35.5726C35.7528 75.1451 35.9303 75.1331 36.1049 75.112V75.5846L35.1551 76.5703L34.2623 75.7009V75.1121ZM35.5726 73.4399H34.7949C33.2883 73.4399 32.0626 72.2142 32.0626 70.7077V68.4528C33.1731 68.3327 35.1397 67.9438 36.6563 66.6772C36.9959 67.2596 37.5211 67.8895 38.3047 68.2573V70.7078C38.3046 72.2142 37.079 73.4399 35.5726 73.4399ZM37.7665 64.9544C37.6925 64.6277 37.434 64.3745 37.1057 64.3075C36.7774 64.2402 36.4403 64.3716 36.2441 64.6431C34.699 66.7787 31.2544 66.8021 31.2129 66.8021C31.2118 66.8021 31.211 66.8021 31.21 66.8021C31.1807 66.8021 31.1516 66.8036 31.123 66.8064C31.114 66.8075 31.1054 66.8093 31.0964 66.8105C31.0771 66.8131 31.0575 66.8155 31.0385 66.8193C31.0264 66.8218 31.0146 66.8256 31.0024 66.8286C30.9873 66.8324 30.9719 66.8358 30.957 66.8403C30.9478 66.8431 30.9392 66.847 30.9301 66.8502V66.2945C30.9301 64.0664 32.7427 62.2537 34.9708 62.2537H35.3787C37.6067 62.2537 39.4191 64.0664 39.4191 66.2945V66.8433H39.4188C39.4025 66.838 39.3855 66.834 39.3689 66.8296C39.3614 66.8277 39.3541 66.8251 39.3465 66.8233C38.1581 66.553 37.7693 64.9663 37.7665 64.9544ZM24.7211 58.8526H34.0831C34.0937 59.4399 34.1164 60.0264 34.1488 60.6081C31.3685 61.008 29.2246 63.4051 29.2246 66.2944V67.8031C28.6777 68.2457 28.327 68.9211 28.327 69.6774C28.327 70.9519 29.3219 71.9959 30.5756 72.0805C30.9148 73.1206 31.6284 73.9924 32.5569 74.5371V75.0173L31.6256 75.382C27.3582 70.8731 24.9262 65.0376 24.7211 58.8526ZM30.3572 69.084V70.2708C30.1621 70.145 30.0322 69.9263 30.0322 69.6776C30.0322 69.4287 30.1621 69.21 30.3572 69.084ZM38.771 80.3254V83.2948H37.7717H33.4094H32.5H31.7366H27.6846V81.0914C27.6846 78.7143 29.543 78.0254 29.6152 77.9997C29.6284 77.9953 29.6416 77.9905 29.6546 77.9854L32.8704 76.726L34.5792 78.3903C34.7385 78.5454 34.9519 78.6321 35.174 78.6321C35.1785 78.6321 35.183 78.6321 35.1875 78.632C35.4144 78.6285 35.6306 78.5346 35.7879 78.3711L37.402 76.696L39.3971 77.496C39.0188 78.2703 38.771 79.208 38.771 80.3254ZM46.9973 72.8749L42.4719 74.6471C41.8956 74.8454 41.098 75.3028 40.3905 76.0571L37.81 75.0222V74.5373C38.7391 73.9924 39.4529 73.1199 39.7921 72.079C41.0326 71.981 42.0125 70.9425 42.0125 69.6774C42.0125 68.925 41.6656 68.2525 41.1241 67.8098V66.2944C41.1241 63.2865 38.8006 60.8127 35.8545 60.5696C35.822 60.0008 35.7996 59.4271 35.7887 58.8525H43.4943C43.0686 59.7535 42.8294 60.7592 42.8294 61.8201V63.8096C42.1484 64.3213 41.707 65.1354 41.707 66.051C41.707 67.5813 42.9407 68.8284 44.4657 68.8518C44.8659 70.2033 45.7876 71.3324 46.9971 72.0052V72.8749H46.9973ZM40.0099 70.2521V69.1027C40.1895 69.2309 40.3073 69.4405 40.3073 69.6775C40.3073 69.9145 40.1895 70.124 40.0099 70.2521ZM51.4345 73.4699C51.4345 73.4711 51.4345 73.4723 51.4345 73.4731V73.5248L50.0374 74.9745L48.7025 73.6742V72.6014C48.9889 72.6492 49.2825 72.6752 49.5823 72.6752H50.555C50.8546 72.6752 51.1481 72.6492 51.4345 72.6016V73.4699ZM50.555 70.9701H49.5823C47.5803 70.9701 45.9516 69.3415 45.9516 67.3395V64.3292C47.3123 64.2039 50.0031 63.7309 51.9685 61.9665C52.3833 62.7515 53.0786 63.6628 54.1854 64.1355V67.3394C54.1853 69.3415 52.5568 70.9701 50.555 70.9701ZM59.6329 76.0629C58.9255 75.3067 58.127 74.8477 57.5494 74.6483L53.1396 72.8797V72.0052C54.3494 71.3323 55.2709 70.2028 55.671 68.8509C57.1799 68.8092 58.3949 67.5696 58.3949 66.0511C58.3949 65.1408 57.9583 64.3308 57.2839 63.8186V61.8202C57.2839 60.7594 57.0448 59.7536 56.619 58.8526H64.211C64.1999 59.4295 64.1773 60.0056 64.1444 60.5771C61.2434 60.865 58.9701 63.3191 58.9701 66.2944V67.8033C58.4234 68.2458 58.0728 68.9212 58.0728 69.6775C58.0728 70.9521 59.0677 71.9961 60.3214 72.0806C60.6606 73.1207 61.3743 73.9925 62.3028 74.5372V75.0174L59.6329 76.0629ZM60.1034 69.084V70.2708C59.9082 70.145 59.7784 69.9263 59.7784 69.6776C59.7784 69.4287 59.9083 69.2099 60.1034 69.084ZM72.3337 83.2948H67.5179H63.1558H62.2461H61.4827H61.2473V80.3253C61.2473 79.2124 61.0017 78.2778 60.6258 77.5055L62.6166 76.7259L64.3252 78.3902C64.4844 78.5453 64.6979 78.6321 64.9201 78.6321C64.9246 78.6321 64.9291 78.6321 64.9335 78.632C65.1604 78.6285 65.3766 78.5346 65.534 78.3711L67.1482 76.696L70.3572 77.9827C70.3721 77.9889 70.3805 77.992 70.396 77.9973C70.4751 78.0254 72.3339 78.7144 72.3339 81.0915V83.2948H72.3337Z" fill="black"/>
</svg>
