<svg width="100" height="117" viewBox="0 0 100 117" fill="none" xmlns="http://www.w3.org/2000/svg">
<path d="M95.8762 28.87L54.1248 1.13195C51.8575 -0.377316 48.1435 -0.377316 45.8752 1.13195L4.12946 28.8719C1.85746 30.3793 0 33.8446 0 36.5738V80.0927C0 82.8218 1.85746 86.2872 4.12946 87.7945L45.8752 115.535C48.1435 117.044 51.8584 117.044 54.1248 115.535L95.8762 87.7926C98.1435 86.2834 100 82.8199 100 80.0908V36.5709C99.9991 33.8446 98.1435 30.3793 95.8762 28.87Z" fill="white"/>
<path d="M82.9911 37.2642C82.9869 37.2642 82.9827 37.2637 82.9785 37.2637H64.6504V35.2422C64.6504 31.8983 61.9298 29.1777 58.5859 29.1777H42.4141C39.0702 29.1777 36.3496 31.8983 36.3496 35.2422V37.2637H18.0215C16.896 37.2637 16 38.186 16 39.2852V83.7578C16 87.1017 18.7206 89.8223 22.0645 89.8223H78.9355C82.2794 89.8223 85 87.1017 85 83.7578V39.3278C85 39.3252 85 39.3225 85 39.3199C84.9226 37.9922 84.1061 37.2716 82.9911 37.2642V37.2642ZM40.3926 35.2422C40.3926 34.1277 41.2996 33.2207 42.4141 33.2207H58.5859C59.7004 33.2207 60.6074 34.1277 60.6074 35.2422V37.2637H40.3926V35.2422ZM80.1737 41.3066L73.896 60.1391C73.6207 60.9661 72.85 61.5215 71.9788 61.5215H60.6074V59.5C60.6074 58.3834 59.7025 57.4785 58.5859 57.4785H42.4141C41.2975 57.4785 40.3926 58.3834 40.3926 59.5V61.5215H29.0212C28.15 61.5215 27.3793 60.9661 27.104 60.1391L20.8263 41.3066H80.1737ZM56.5645 61.5215V65.5645H44.4355V61.5215H56.5645ZM80.957 83.7578C80.957 84.8723 80.05 85.7793 78.9355 85.7793H22.0645C20.95 85.7793 20.043 84.8723 20.043 83.7578V51.742L23.2684 61.4178C24.0949 63.8983 26.407 65.5645 29.0212 65.5645H40.3926V67.5859C40.3926 68.7025 41.2975 69.6074 42.4141 69.6074H58.5859C59.7025 69.6074 60.6074 68.7025 60.6074 67.5859V65.5645H71.9788C74.593 65.5645 76.9051 63.8983 77.7316 61.4178L80.957 51.742V83.7578Z" fill="black"/>
</svg>
