<svg width="100" height="117" viewBox="0 0 100 117" fill="none" xmlns="http://www.w3.org/2000/svg">
<path d="M95.8762 28.87L54.1248 1.13195C51.8575 -0.377316 48.1435 -0.377316 45.8752 1.13195L4.12946 28.8719C1.85746 30.3793 0 33.8446 0 36.5738V80.0927C0 82.8218 1.85746 86.2872 4.12946 87.7945L45.8752 115.535C48.1435 117.044 51.8584 117.044 54.1248 115.535L95.8762 87.7926C98.1435 86.2834 100 82.8199 100 80.0908V36.5709C99.9991 33.8446 98.1435 30.3793 95.8762 28.87Z" fill="white"/>
<path d="M39.1051 67.5302H70.5299C74.0931 67.5302 77 64.625 77 61.0637V47.8495C77 47.8378 77 47.8144 77 47.8027C77 47.7675 77 47.7441 77 47.7089C77 47.6855 77 47.6621 76.9883 47.6387C76.9883 47.6152 76.9766 47.5801 76.9766 47.5567C76.9766 47.5332 76.9648 47.5098 76.9648 47.4864C76.9531 47.4629 76.9531 47.4395 76.9414 47.4044C76.9297 47.3809 76.9297 47.3575 76.918 47.3341C76.9062 47.3106 76.9062 47.2872 76.8945 47.2638C76.8828 47.2404 76.8711 47.2169 76.8593 47.1818C76.8476 47.1584 76.8359 47.1349 76.8242 47.1232C76.8125 47.0998 76.8007 47.0764 76.789 47.0529C76.7773 47.0295 76.7656 47.0178 76.7539 46.9943C76.7421 46.9709 76.7187 46.9475 76.707 46.9241C76.6952 46.9006 76.6835 46.8889 76.6601 46.8655C76.6484 46.8421 76.6249 46.8303 76.6132 46.8069C76.6015 46.7835 76.578 46.7718 76.5663 46.7483C76.5546 46.7249 76.5312 46.7132 76.5194 46.7015C76.496 46.6781 76.4843 46.6663 76.4608 46.6429C76.4374 46.6312 76.4257 46.6078 76.4022 46.5961C76.3788 46.5843 76.3553 46.5609 76.3319 46.5492C76.3084 46.5375 76.2967 46.5258 76.2733 46.514C76.2498 46.5023 76.2264 46.4906 76.203 46.4672C76.1795 46.4555 76.1561 46.4438 76.1326 46.432C76.1092 46.4203 76.0857 46.4086 76.0623 46.3969C76.0389 46.3852 76.0154 46.3735 75.992 46.3618C75.9685 46.35 75.9451 46.35 75.9216 46.3383C75.8982 46.3266 75.863 46.3149 75.8396 46.3149C75.8162 46.3149 75.7927 46.3032 75.781 46.3032C75.7458 46.2915 75.7224 46.2915 75.6872 46.2915C75.6755 46.2915 75.6638 46.2798 75.6403 46.2798L35.8114 40.7856V35.2328C35.8114 35.1742 35.8114 35.1157 35.7997 35.0688C35.7997 35.0571 35.7997 35.0454 35.788 35.0219C35.788 34.9868 35.7762 34.9517 35.7762 34.9165C35.7645 34.8814 35.7645 34.8579 35.7528 34.8228C35.7528 34.7994 35.7411 34.7876 35.7411 34.7642C35.7293 34.7291 35.7176 34.6939 35.7059 34.6588C35.7059 34.6471 35.6942 34.6236 35.6942 34.6119C35.6825 34.5768 35.6707 34.5534 35.6473 34.5182C35.6356 34.5065 35.6356 34.4831 35.6239 34.4713C35.6121 34.4479 35.6004 34.4245 35.577 34.4011C35.5652 34.3776 35.5535 34.3659 35.5418 34.3425C35.5301 34.3191 35.5184 34.3073 35.5066 34.2839C35.4949 34.2605 35.4715 34.2371 35.4598 34.2136C35.448 34.2019 35.4363 34.1902 35.4246 34.1785C35.4012 34.1551 35.3777 34.1316 35.3543 34.1082C35.3425 34.0965 35.3308 34.0848 35.3191 34.073C35.2957 34.0496 35.2722 34.0262 35.2371 34.0028C35.2253 33.991 35.2019 33.9793 35.1902 33.9676C35.1667 33.9442 35.1433 33.9325 35.1198 33.909C35.0847 33.8856 35.0495 33.8622 35.0261 33.8505C35.0143 33.8388 35.0026 33.8388 34.9909 33.827C34.944 33.8036 34.8854 33.7802 34.8385 33.7568L26.1999 30.1252C25.3912 29.7855 24.4652 30.1603 24.1253 30.9687C23.7854 31.777 24.1604 32.7024 24.9692 33.0422L32.6349 36.2754V43.4448V44.5811V53.2969V61.0871V70.9275C32.6349 74.2076 35.0964 76.9254 38.2729 77.3354C37.6985 78.296 37.3586 79.4206 37.3586 80.6155C37.3586 84.1416 40.2303 87 43.7467 87C47.2631 87 50.1348 84.1299 50.1348 80.6155C50.1348 79.444 49.8183 78.3311 49.2557 77.394H63.4854C62.9227 78.3428 62.6063 79.444 62.6063 80.6155C62.6063 84.1416 65.478 87 68.9944 87C72.5107 87 75.3825 84.1299 75.3825 80.6155C75.3825 77.1011 72.5107 74.231 68.9944 74.231H39.1051C37.2766 74.231 35.7997 72.7432 35.7997 70.9275V66.6399C36.7608 67.2022 37.8978 67.5302 39.1051 67.5302ZM46.9818 80.6038C46.9818 82.3844 45.5283 83.8253 43.7584 83.8253C41.9885 83.8253 40.5351 82.3727 40.5351 80.6038C40.5351 78.8349 41.9885 77.3822 43.7584 77.3822C45.5283 77.3822 46.9818 78.8232 46.9818 80.6038ZM72.2294 80.6038C72.2294 82.3844 70.776 83.8253 69.0061 83.8253C67.2362 83.8253 65.7827 82.3727 65.7827 80.6038C65.7827 78.8349 67.2362 77.3822 69.0061 77.3822C70.776 77.3822 72.2294 78.8232 72.2294 80.6038ZM70.5299 64.3672H39.1051C37.2766 64.3672 35.7997 62.8795 35.7997 61.0637V53.2734V44.5577V43.972L73.8353 49.2084V61.052C73.8353 62.8912 72.3467 64.3672 70.5299 64.3672Z" fill="black"/>
</svg>
