<svg width="100" height="117" viewBox="0 0 100 117" fill="none" xmlns="http://www.w3.org/2000/svg">
<path d="M95.8762 28.87L54.1248 1.13195C51.8575 -0.377316 48.1435 -0.377316 45.8752 1.13195L4.12946 28.8719C1.85746 30.3793 0 33.8446 0 36.5738V80.0927C0 82.8218 1.85746 86.2872 4.12946 87.7945L45.8752 115.535C48.1435 117.044 51.8584 117.044 54.1248 115.535L95.8762 87.7926C98.1435 86.2834 100 82.8199 100 80.0908V36.5709C99.9991 33.8446 98.1435 30.3793 95.8762 28.87Z" fill="white"/>
<g clip-path="url(#clip0)">
<path d="M80.1064 78.2653C79.6129 78.2653 79.2129 78.6654 79.2129 79.1589V85.1294C79.2129 85.2123 79.1455 85.2799 79.0624 85.2799H75.6672V72.2248C75.6672 71.7313 75.2672 71.3313 74.7736 71.3313C74.28 71.3313 73.8801 71.7313 73.8801 72.2248V85.28H67.319L69.0948 83.3264C69.369 83.0247 69.4983 82.5961 69.4408 82.1799C69.4395 82.171 69.4381 82.1622 69.4366 82.1533L67.4404 70.3588L67.8077 69.8059L67.9034 69.8738C68.2309 70.1065 68.6486 70.1913 69.0527 70.0904C69.4496 69.9912 69.7821 69.7242 69.9649 69.3582V69.3581L71.9961 65.2869L76.636 67.0839C76.8191 67.1635 79.2124 68.2609 79.2124 71.1162V74.9888C79.2125 75.4823 79.6125 75.8824 80.1061 75.8824C80.5997 75.8824 80.9996 75.4823 80.9996 74.9889V71.1163C80.9996 66.9929 77.463 65.4916 77.3125 65.4296C77.3068 65.4273 77.3012 65.425 77.2955 65.4228L69.3944 62.3628V60.7354C70.6278 59.7432 71.4939 58.3131 71.754 56.6829C72.3691 56.6057 72.9398 56.3595 73.4134 55.9521C74.0925 55.3681 74.4822 54.5183 74.4822 53.6208C74.4822 52.9044 74.2335 52.2189 73.7883 51.6744V49.2632C73.7883 44.5446 69.9494 40.7057 65.2309 40.7057C63.1125 40.7057 61.1729 41.4811 59.6768 42.7609C59.6575 42.0762 59.4125 41.4238 58.9854 40.9015V38.4904C58.9854 33.7718 55.1464 29.933 50.428 29.933C45.7093 29.933 41.8705 33.7719 41.8705 38.4904V40.9644C41.441 41.4777 41.2007 42.0965 41.1795 42.7533C40.2249 41.9375 39.0825 41.3234 37.8092 40.9881C37.3312 40.8623 36.8431 41.1474 36.7174 41.6247C36.5917 42.102 36.8767 42.5908 37.354 42.7165C40.3221 43.498 42.3952 46.1903 42.3952 49.2631V50.5995C42.3566 50.5915 42.2327 50.5702 42.2279 50.5695C42.2158 50.3173 42.1519 50.1632 42.0144 49.9655C41.7857 49.6367 41.3749 49.2273 40.0536 47.8071C39.5827 47.3014 38.8212 47.2085 38.2431 47.5865C35.9801 49.0648 33.2307 49.8182 30.6791 49.6684C29.848 49.6197 29.3289 49.9849 29.1077 50.5833C29.0879 50.5865 28.8669 50.6311 28.8546 50.6341V49.2631C28.8546 46.3002 30.8345 43.6347 33.6692 42.7808C34.1417 42.6386 34.4094 42.1401 34.2672 41.6674C34.1248 41.1948 33.6256 40.9271 33.1537 41.0696C31.4297 41.5888 29.8801 42.6699 28.7905 44.1134C27.6631 45.6067 27.0673 47.3875 27.0673 49.2632V51.7373C26.6172 52.2751 26.3738 52.9287 26.3738 53.6208C26.3738 55.1506 27.5008 56.4847 29.1066 56.6837C29.3697 58.2757 30.2334 59.8025 31.5966 60.8406V62.3633L23.7044 65.4231C23.6988 65.4252 23.6932 65.4275 23.6876 65.4298C23.5368 65.4916 20 66.9928 20 71.1162V85.1294C20 86.198 20.8692 87.0671 21.9378 87.0671H49.4558C49.8404 87.0671 50.1982 86.9531 50.5001 86.7591C50.8017 86.9531 51.1596 87.0671 51.5443 87.0671H79.0624C80.1309 87.0671 81.0001 86.198 81.0001 85.1294V79.1589C81 78.6654 80.6 78.2653 80.1064 78.2653ZM29.0192 54.8373C28.4953 54.6472 28.1606 54.1627 28.1606 53.6206C28.1606 53.0948 28.5419 52.6628 29.0192 52.4578V54.8373ZM70.3224 64.6387L68.5684 68.154C68.5682 68.1538 66.6201 66.7702 66.5925 66.7505C67.4329 65.7131 67.0381 66.2005 68.7856 64.0436L70.3224 64.6387ZM65.3008 65.5058L62.9898 62.6532V61.796C63.741 62.0557 64.5502 62.1756 65.3118 62.1758C65.312 62.1758 65.3122 62.1758 65.3123 62.1758H65.3124C66.0999 62.1757 66.8972 62.0262 67.6073 61.7589V62.6587L65.3008 65.5058ZM66.3499 68.7706L66.0212 69.2654H64.5807L64.252 68.7706L65.301 68.0256L66.3499 68.7706ZM50.4977 54.7329L48.1867 51.8803V51.0231C48.9349 51.2817 49.7433 51.4026 50.5088 51.4029C50.5089 51.4029 50.5091 51.4029 50.5092 51.4029H50.5094C51.2954 51.4029 52.0926 51.2538 52.8042 50.9861V51.8858L50.4977 54.7329ZM51.5467 57.9979L51.218 58.4927H49.7775L49.4488 57.9979L50.4978 57.2529L51.5467 57.9979ZM43.4609 45.8251C43.607 45.8649 43.7571 45.8919 43.9095 45.9108C44.1725 47.5028 45.0363 49.0296 46.3995 50.0677V51.5904L44.5765 52.297C44.4708 52.0751 44.3387 51.866 44.1819 51.6743V49.2632C44.1819 48.0506 43.9265 46.885 43.4609 45.8251ZM55.246 44.8789C55.246 47.4944 53.1125 49.6154 50.5094 49.6154C47.5724 49.6154 45.6097 47.3392 45.6097 44.8789V40.6932C48.4313 40.8062 51.3625 39.9699 53.759 38.4783C54.5648 39.3423 55.0442 39.8442 55.2461 40.0773C55.246 42.302 55.246 43.161 55.246 44.8789ZM56.951 45.9102C57.1026 45.8911 57.252 45.8639 57.3972 45.8243C56.933 46.8775 56.6733 48.0403 56.6733 49.2632V51.7372C56.536 51.9012 56.4178 52.076 56.32 52.2594L54.5915 51.5901V49.9626C55.8247 48.9703 56.691 47.5402 56.951 45.9102ZM47.0097 53.2721L49.2033 55.9797L47.7074 57.0422C47.7066 57.0428 47.706 57.0433 47.7051 57.0439L47.2304 57.3812L45.4763 53.866L47.0097 53.2721ZM52.5543 55.0335L53.9824 53.2706L55.5192 53.8658L53.7653 57.3812L53.2895 57.0433C53.289 57.043 53.2885 57.0425 53.2881 57.0422L51.7894 55.9776L52.5543 55.0335ZM53.0046 59.0331L53.1003 59.101C53.4344 59.3384 53.8536 59.4167 54.2496 59.3176C54.6465 59.2184 54.979 58.9514 55.1618 58.5854V58.5853L56.6699 55.5628C57.188 56.2014 57.9374 56.5898 58.7092 56.6862C58.9818 58.3946 59.9052 59.8527 61.2027 60.8406V62.3632L53.6058 65.3085L52.6372 59.5862L53.0046 59.0331ZM61.8128 64.0449L64.0064 66.7525C63.0473 67.4338 62.0831 68.1188 62.0334 68.154L60.2793 64.6388L61.8128 64.0449ZM70.049 55.6518C70.0492 58.2034 67.977 60.3883 65.3124 60.3883C62.2753 60.3883 60.4128 58.0096 60.4128 55.6518V51.4661C63.2142 51.578 66.1493 50.7529 68.562 49.2512C69.3677 50.1152 69.8471 50.6172 70.0491 50.8502C70.049 53.0748 70.049 53.9339 70.049 55.6518ZM72.6951 53.6207C72.6951 54.1637 72.3593 54.6473 71.8366 54.8373V52.4065C72.377 52.6033 72.6951 53.0972 72.6951 53.6207ZM58.4605 49.2631C58.4605 45.53 61.4978 42.4929 65.2308 42.4929C68.964 42.4929 72.001 45.5301 72.001 49.2631V50.5995C71.9603 50.5911 71.8486 50.5718 71.8337 50.5695C71.8215 50.317 71.7573 50.1626 71.6202 49.9655C71.3854 49.6282 70.9791 49.2257 69.6594 47.8071C69.1985 47.3124 68.4387 47.201 67.8489 47.5865C65.6472 49.0247 62.8655 49.8371 60.2186 49.6652C59.475 49.6165 58.9364 49.9806 58.7135 50.5834C58.6936 50.5867 58.4729 50.6312 58.4604 50.6342V49.2631H58.4605ZM58.6256 52.4579V54.8362C58.1001 54.6467 57.767 54.1609 57.767 53.6206C57.7669 53.0948 58.1479 52.663 58.6256 52.4579ZM57.8918 42.8479C57.8918 43.2241 57.7289 43.58 57.445 43.8241C57.3231 43.929 57.1842 44.0095 57.0332 44.0644V41.6336C57.5676 41.8276 57.8918 42.3188 57.8918 42.8479ZM50.4276 31.7201C54.1608 31.7201 57.1979 34.7572 57.1979 38.4903V39.8267C57.1575 39.8184 57.0455 39.799 57.0306 39.7967C57.0174 39.523 56.9385 39.3548 56.7776 39.1371C56.5383 38.8133 56.0973 38.3681 54.8563 37.0342C54.3877 36.5311 53.6267 36.434 53.0458 36.8135C50.7207 38.3326 47.9001 39.0719 45.3434 38.8887C44.7179 38.8414 44.129 39.2193 43.9105 39.8104C43.8906 39.8136 43.6699 39.8582 43.6575 39.8612V38.4904H43.6574C43.6574 34.7572 46.6946 31.7201 50.4276 31.7201ZM43.8222 41.685V44.0646C43.2984 43.8744 42.9637 43.3899 42.9637 42.8478C42.9637 42.325 43.342 41.8914 43.8222 41.685ZM42.23 52.4065C42.73 52.5884 43.051 53.0246 43.0829 53.543C43.1229 54.1194 42.7687 54.6406 42.23 54.8363V52.4065ZM42.1472 56.6859C42.99 56.5805 43.7636 56.1363 44.2709 55.4531L45.8338 58.5853C45.8338 58.5853 45.8338 58.5853 45.8339 58.5854C46.0166 58.9515 46.3491 59.2184 46.7459 59.3176C47.1383 59.4157 47.558 59.3406 47.8953 59.101L47.991 59.0331L48.3583 59.586L47.39 65.3068L39.7884 62.3627V60.736H39.7883C41.0539 59.7155 41.8932 58.2737 42.1472 56.6859ZM35.6944 65.5058L33.3834 62.6532V61.796C34.1316 62.0546 34.9401 62.1756 35.7056 62.1757C35.7057 62.1757 35.7059 62.1757 35.706 62.1757C36.505 62.1757 37.3009 62.0222 38.0009 61.7589V62.6587L35.6944 65.5058ZM36.7435 68.7706L36.4148 69.2654H34.9743L34.6456 68.7706L35.6946 68.0256L36.7435 68.7706ZM39.1791 64.0436L40.716 64.6388L38.962 68.154L38.4862 67.8161C38.4857 67.8158 38.4852 67.8153 38.4848 67.8149L36.9861 66.7505L39.1791 64.0436ZM30.8064 55.6518V51.4661C33.643 51.5795 36.5761 50.7321 38.9556 49.2512C39.7537 50.1071 40.2405 50.6169 40.4427 50.8502C40.4427 53.0749 40.4427 53.934 40.4427 55.6518C40.4427 58.2506 38.3238 60.3883 35.706 60.3883C32.7915 60.3883 30.8064 58.1381 30.8064 55.6518ZM32.2065 64.0449L34.4001 66.7525L32.9042 67.8149C32.9034 67.8155 32.9028 67.8161 32.902 67.8167L32.4272 68.154L30.6731 64.6388L32.2065 64.0449ZM27.1202 85.2801V72.2248C27.1202 71.7313 26.7202 71.3313 26.2266 71.3313C25.733 71.3313 25.3331 71.7313 25.3331 72.2248V85.28H21.9378C21.8547 85.28 21.7872 85.2124 21.7872 85.1295V71.1162C21.7872 68.2462 24.2054 67.1523 24.362 67.0846L28.999 65.2869L31.0305 69.3581C31.0305 69.3581 31.0305 69.3581 31.0306 69.3582C31.2133 69.7243 31.5458 69.9912 31.9428 70.0904C32.3351 70.1885 32.7548 70.1134 33.0921 69.8738L33.1878 69.8059L33.5551 70.3588L31.5589 82.1533C31.5573 82.1621 31.556 82.171 31.5547 82.1799C31.4973 82.5959 31.6266 83.0244 31.9009 83.3267L33.6765 85.28H27.1202V85.2801ZM33.3524 82.2662L35.2502 71.0526H36.1389L38.0368 82.2662L35.6946 84.8428L33.3524 82.2662ZM49.6063 85.1294C49.6063 85.2124 49.5388 85.28 49.4558 85.28H46.0608V72.2248C46.0608 71.7313 45.6608 71.3313 45.1672 71.3313C44.6736 71.3313 44.2737 71.7313 44.2737 72.2248V85.28H37.7126L39.4884 83.3264C39.7627 83.0247 39.8919 82.5961 39.8344 82.1799C39.8331 82.171 39.8318 82.1622 39.8302 82.1533L37.834 70.3588L38.2013 69.8059L38.297 69.8738C38.5361 70.0437 38.8192 70.1323 39.1064 70.1323C39.6305 70.1323 40.1186 69.8387 40.3586 69.3582V69.3581L42.3898 65.287L47.0297 67.084C48.3822 67.6723 49.6061 69.1896 49.6061 71.1162V85.1294H49.6063ZM50.4999 67.8692C50.1298 67.2727 49.637 66.7209 49.043 66.2499L50.0534 60.2799H50.9421L51.953 66.253C51.3431 66.7373 50.8568 67.2942 50.4999 67.8692ZM56.7265 85.2801V72.2248C56.7265 71.7313 56.3265 71.3313 55.8329 71.3313C55.3393 71.3313 54.9394 71.7313 54.9394 72.2248V85.28H51.5442C51.4612 85.28 51.3936 85.2124 51.3936 85.1295V71.1162C51.3936 70.054 51.7267 69.0756 52.4363 68.2536C52.9094 67.7109 53.5369 67.2715 53.9685 67.0846L58.6055 65.2868L60.637 69.3581C60.637 69.3581 60.637 69.3581 60.6371 69.3582C60.8198 69.7243 61.1523 69.9912 61.5491 70.0904C61.9415 70.1885 62.3612 70.1134 62.6985 69.8738L62.7942 69.8059L63.1615 70.3588L61.1653 82.1533C61.1637 82.1621 61.1624 82.171 61.1611 82.1799C61.1037 82.5959 61.2329 83.0244 61.5073 83.3267L63.2829 85.28H56.7265V85.2801ZM62.9587 82.2663L64.8566 71.0527H65.7453L67.6432 82.2663L65.3009 84.843L62.9587 82.2663Z" fill="black"/>
</g>
<defs>
<clipPath id="clip0">
<rect width="61" height="61" fill="white" transform="translate(20 28)"/>
</clipPath>
</defs>
</svg>
