<svg width="100" height="117" viewBox="0 0 100 117" fill="none" xmlns="http://www.w3.org/2000/svg">
<path d="M95.8762 28.87L54.1248 1.13195C51.8575 -0.377316 48.1435 -0.377316 45.8752 1.13195L4.12946 28.8719C1.85746 30.3793 0 33.8446 0 36.5738V80.0927C0 82.8218 1.85746 86.2872 4.12946 87.7945L45.8752 115.535C48.1435 117.044 51.8584 117.044 54.1248 115.535L95.8762 87.7926C98.1435 86.2834 100 82.8199 100 80.0908V36.5709C99.9991 33.8446 98.1435 30.3793 95.8762 28.87Z" fill="white"/>
<path d="M74.2383 36.9141C74.8743 36.9141 75.3906 36.3978 75.3906 35.7617C75.3906 35.1257 74.8743 34.6094 74.2383 34.6094C73.6022 34.6094 73.0859 35.1257 73.0859 35.7617C73.0859 36.3978 73.6022 36.9141 74.2383 36.9141Z" fill="black"/>
<path d="M69.6289 36.9141C70.2649 36.9141 70.7812 36.3978 70.7812 35.7617C70.7812 35.1257 70.2649 34.6094 69.6289 34.6094C68.9929 34.6094 68.4766 35.1257 68.4766 35.7617C68.4766 36.3978 68.9929 36.9141 69.6289 36.9141Z" fill="black"/>
<path d="M65.0195 36.9141C65.6556 36.9141 66.1719 36.3978 66.1719 35.7617C66.1719 35.1257 65.6556 34.6094 65.0195 34.6094C64.3835 34.6094 63.8672 35.1257 63.8672 35.7617C63.8672 36.3978 64.3835 36.9141 65.0195 36.9141Z" fill="black"/>
<path d="M27.9141 35.7617C27.9141 35.1266 27.3969 34.6094 26.7617 34.6094C26.1266 34.6094 25.6094 35.1266 25.6094 35.7617C25.6094 36.3969 26.1266 36.9141 26.7617 36.9141C27.3969 36.9141 27.9141 36.3969 27.9141 35.7617Z" fill="black"/>
<path d="M56.9531 63.6484C56.9531 63.0133 56.4359 62.4961 55.8008 62.4961H51.1914C50.5563 62.4961 50.0391 63.0133 50.0391 63.6484C50.0391 64.2836 50.5563 64.8008 51.1914 64.8008H55.8008C56.4359 64.8008 56.9531 64.2836 56.9531 63.6484Z" fill="black"/>
<path d="M69.6289 62.4961H65.0195C64.3844 62.4961 63.8672 63.0133 63.8672 63.6484C63.8672 64.2836 64.3844 64.8008 65.0195 64.8008H69.6289C70.2649 64.8008 70.7812 64.2836 70.7812 63.6484C70.7812 63.0133 70.2649 62.4961 69.6289 62.4961Z" fill="black"/>
<path d="M60.4102 62.4961C59.775 62.4961 59.2578 63.0133 59.2578 63.6484C59.2578 64.2836 59.775 64.8008 60.4102 64.8008C61.0462 64.8008 61.5625 64.2836 61.5625 63.6484C61.5625 63.0133 61.0462 62.4961 60.4102 62.4961Z" fill="black"/>
<path d="M54.6484 60.1914H69.6289C70.2654 60.1914 70.7812 59.6756 70.7812 59.0391C70.7812 58.403 70.2654 57.8867 69.6289 57.8867H54.6484C54.0124 57.8867 53.4961 58.403 53.4961 59.0391C53.4961 59.6756 54.0124 60.1914 54.6484 60.1914Z" fill="black"/>
<path d="M59.2578 48.4375H45.4297C44.7932 48.4375 44.2773 48.9534 44.2773 49.5898C44.2773 50.2263 44.7932 50.7422 45.4297 50.7422H59.2578C59.8943 50.7422 60.4102 50.2263 60.4102 49.5898C60.4102 48.9534 59.8943 48.4375 59.2578 48.4375Z" fill="black"/>
<path d="M78.8477 30H22.1523C21.5159 30 21 30.5159 21 31.1523V87.8477C21 88.4841 21.5159 89 22.1523 89H78.8477C79.4841 89 80 88.4841 80 87.8477V31.1523C80 30.5159 79.4841 30 78.8477 30ZM77.6953 32.3047V39.2188H48.0985C46.7495 39.2188 45.5368 38.4693 44.9332 37.2625L42.4543 32.3047H77.6953ZM50.5 71.2373L46.7054 67.4431C46.4893 67.227 46.1963 67.1055 45.8906 67.1055H27.9141V55.1211H45.413L49.6853 59.3929C50.1255 59.8331 50.8759 59.8317 51.3147 59.3929L55.587 55.1211H73.0859V67.1055H55.1094C54.8037 67.1055 54.5107 67.227 54.2946 67.4431L50.5 71.2373ZM73.0859 52.8164H55.1094C54.8037 52.8164 54.5107 52.9379 54.2946 53.154L50.5 56.9486L46.7054 53.154C46.4893 52.9379 46.1963 52.8164 45.8906 52.8164H27.9141V41.5234H73.0859V52.8164ZM23.3047 32.3047H39.8777L41.0301 34.6094H31.3711C30.736 34.6094 30.2188 35.1266 30.2188 35.7617C30.2188 36.3969 30.736 36.9141 31.3711 36.9141H42.1824L42.872 38.2933C43.0368 38.6237 43.2303 38.9325 43.4468 39.2188H23.3047V32.3047ZM23.3047 41.5234H25.6094V86.6953H23.3047V41.5234ZM27.9141 69.4102H45.413L48.261 72.2582L49.6853 73.6819C49.9004 73.8971 50.2011 74.0209 50.5059 74.0191C50.8061 74.0177 51.1023 73.8944 51.3147 73.6819L55.587 69.4102H73.0859V86.6953H27.9141V69.4102ZM77.6953 86.6953H75.3906V41.5234H77.6953V86.6953Z" fill="black"/>
<path d="M69.6289 48.4375H63.8672C63.2307 48.4375 62.7148 48.9534 62.7148 49.5898C62.7148 50.2263 63.2307 50.7422 63.8672 50.7422H69.6289C70.2654 50.7422 70.7812 50.2263 70.7812 49.5898C70.7812 48.9534 70.2654 48.4375 69.6289 48.4375Z" fill="black"/>
<path d="M54.6484 46.1328C55.2836 46.1328 55.8008 45.6156 55.8008 44.9805C55.8008 44.3453 55.2836 43.8281 54.6484 43.8281C54.0133 43.8281 53.4961 44.3453 53.4961 44.9805C53.4961 45.6156 54.0133 46.1328 54.6484 46.1328Z" fill="black"/>
<path d="M59.2578 46.1328H69.6289C70.264 46.1328 70.7812 45.6156 70.7812 44.9805C70.7812 44.3453 70.264 43.8281 69.6289 43.8281H59.2578C58.6227 43.8281 58.1055 44.3453 58.1055 44.9805C58.1055 45.6156 58.6227 46.1328 59.2578 46.1328Z" fill="black"/>
<path d="M33.6758 43.8281C31.7695 43.8281 30.2188 45.3788 30.2188 47.2852C30.2188 49.1915 31.7695 50.7422 33.6758 50.7422C35.5821 50.7422 37.1328 49.1915 37.1328 47.2852C37.1328 45.3788 35.5821 43.8281 33.6758 43.8281ZM33.6758 48.4375C33.0402 48.4375 32.5234 47.9207 32.5234 47.2852C32.5234 46.6496 33.0402 46.1328 33.6758 46.1328C34.3114 46.1328 34.8281 46.6496 34.8281 47.2852C34.8281 47.9207 34.3114 48.4375 33.6758 48.4375Z" fill="black"/>
<path d="M33.6758 57.4258C31.7695 57.4258 30.2188 58.9765 30.2188 60.8828C30.2188 62.7891 31.7695 64.3398 33.6758 64.3398C35.5821 64.3398 37.1328 62.7891 37.1328 60.8828C37.1328 58.9765 35.5821 57.4258 33.6758 57.4258ZM33.6758 62.0352C33.0402 62.0352 32.5234 61.5184 32.5234 60.8828C32.5234 60.2472 33.0402 59.7305 33.6758 59.7305C34.3114 59.7305 34.8281 60.2472 34.8281 60.8828C34.8281 61.5184 34.3114 62.0352 33.6758 62.0352Z" fill="black"/>
<path d="M60.4102 79.0898C61.0462 79.0898 61.5625 78.5735 61.5625 77.9375C61.5625 77.3024 61.0462 76.7852 60.4102 76.7852C59.775 76.7852 59.2578 77.3024 59.2578 77.9375C59.2578 78.5735 59.775 79.0898 60.4102 79.0898Z" fill="black"/>
<path d="M69.6289 76.7852H65.0195C64.3844 76.7852 63.8672 77.3024 63.8672 77.9375C63.8672 78.5735 64.3844 79.0898 65.0195 79.0898H69.6289C70.264 79.0898 70.7812 78.5735 70.7812 77.9375C70.7812 77.3024 70.264 76.7852 69.6289 76.7852Z" fill="black"/>
<path d="M55.8008 76.7852H51.1914C50.5563 76.7852 50.0391 77.3024 50.0391 77.9375C50.0391 78.5735 50.5563 79.0898 51.1914 79.0898H55.8008C56.4359 79.0898 56.9531 78.5735 56.9531 77.9375C56.9531 77.3024 56.4359 76.7852 55.8008 76.7852Z" fill="black"/>
<path d="M55.8008 81.3945C55.1647 81.3945 54.6484 81.9117 54.6484 82.5469C54.6484 83.1829 55.1647 83.6992 55.8008 83.6992C56.4359 83.6992 56.9531 83.1829 56.9531 82.5469C56.9531 81.9117 56.4359 81.3945 55.8008 81.3945Z" fill="black"/>
<path d="M51.1914 81.3945H46.582C45.9469 81.3945 45.4297 81.9117 45.4297 82.5469C45.4297 83.1829 45.9469 83.6992 46.582 83.6992H51.1914C51.8265 83.6992 52.3438 83.1829 52.3438 82.5469C52.3438 81.9117 51.8265 81.3945 51.1914 81.3945Z" fill="black"/>
<path d="M69.6289 81.3945C68.9929 81.3945 68.4766 81.9117 68.4766 82.5469C68.4766 83.1829 68.9929 83.6992 69.6289 83.6992C70.264 83.6992 70.7812 83.1829 70.7812 82.5469C70.7812 81.9117 70.264 81.3945 69.6289 81.3945Z" fill="black"/>
<path d="M65.0195 81.3945H60.4102C59.7741 81.3945 59.2578 81.9117 59.2578 82.5469C59.2578 83.1829 59.7741 83.6992 60.4102 83.6992H65.0195C65.6547 83.6992 66.1719 83.1829 66.1719 82.5469C66.1719 81.9117 65.6547 81.3945 65.0195 81.3945Z" fill="black"/>
<path d="M69.6289 72.1758H59.2578C58.6218 72.1758 58.1055 72.6921 58.1055 73.3281C58.1055 73.9646 58.6218 74.4805 59.2578 74.4805H69.6289C70.2654 74.4805 70.7812 73.9646 70.7812 73.3281C70.7812 72.6921 70.2654 72.1758 69.6289 72.1758Z" fill="black"/>
<path d="M33.6758 71.7148C31.7695 71.7148 30.2188 73.2656 30.2188 75.1719C30.2188 77.0782 31.7695 78.6289 33.6758 78.6289C35.5821 78.6289 37.1328 77.0782 37.1328 75.1719C37.1328 73.2656 35.5821 71.7148 33.6758 71.7148ZM33.6758 76.3242C33.0402 76.3242 32.5234 75.8075 32.5234 75.1719C32.5234 74.5363 33.0402 74.0195 33.6758 74.0195C34.3114 74.0195 34.8281 74.5363 34.8281 75.1719C34.8281 75.8075 34.3114 76.3242 33.6758 76.3242Z" fill="black"/>
</svg>
