<svg width="418" height="418" viewBox="0 0 418 418" fill="none" xmlns="http://www.w3.org/2000/svg">
<g clip-path="url(#clip0)">
<path d="M330.352 258.936C321.794 250.026 311.472 245.262 300.533 245.262C289.681 245.262 279.271 249.937 270.361 258.848L242.483 286.638C240.189 285.403 237.895 284.256 235.69 283.109C232.514 281.521 229.514 280.021 226.956 278.433C200.842 261.847 177.11 240.233 154.349 212.267C143.322 198.328 135.911 186.594 130.529 174.684C137.764 168.068 144.468 161.186 150.997 154.57C153.467 152.1 155.937 149.541 158.407 147.071C176.934 128.544 176.934 104.548 158.407 86.0214L134.323 61.9369C131.588 59.202 128.765 56.3789 126.118 53.5558C120.825 48.0861 115.267 42.4399 109.533 37.1466C100.975 28.6773 90.7414 24.178 79.9783 24.178C69.2153 24.178 58.8051 28.6773 49.9829 37.1466C49.8947 37.2348 49.8947 37.2348 49.8065 37.323L19.8111 67.5831C8.51871 78.8755 2.07852 92.6381 0.666975 108.606C-1.45035 134.367 6.13672 158.363 11.9594 174.067C26.2513 212.62 47.601 248.349 79.449 286.638C118.09 332.778 164.583 369.213 217.693 394.886C237.984 404.502 265.068 415.883 295.328 417.823C297.18 417.912 299.121 418 300.886 418C321.265 418 338.38 410.678 351.79 396.121C351.878 395.944 352.054 395.856 352.142 395.68C356.73 390.122 362.023 385.093 367.581 379.712C371.375 376.095 375.257 372.301 379.05 368.331C387.784 359.244 392.372 348.658 392.372 337.806C392.372 326.867 387.696 316.368 378.785 307.546L330.352 258.936ZM361.935 351.834C361.847 351.834 361.847 351.922 361.935 351.834C358.494 355.539 354.966 358.891 351.172 362.597C345.438 368.066 339.615 373.801 334.145 380.241C325.235 389.769 314.736 394.268 300.974 394.268C299.651 394.268 298.239 394.268 296.916 394.18C270.714 392.504 246.365 382.27 228.103 373.536C178.169 349.363 134.323 315.045 97.8874 271.552C67.8037 235.293 47.6892 201.768 34.3677 165.774C26.1631 143.807 23.1635 126.692 24.4869 110.547C25.3691 100.225 29.339 91.6676 36.6615 84.3452L66.7451 54.2616C71.0679 50.2034 75.6555 47.9979 80.1548 47.9979C85.7128 47.9979 90.2121 51.3503 93.0352 54.1734C93.1234 54.2616 93.2116 54.3498 93.2998 54.438C98.6814 59.4667 103.798 64.6718 109.18 70.2297C111.915 73.0528 114.738 75.8759 117.561 78.7873L141.645 102.872C150.997 112.223 150.997 120.869 141.645 130.221C139.087 132.779 136.617 135.337 134.058 137.808C126.648 145.395 119.59 152.452 111.915 159.334C111.738 159.51 111.562 159.598 111.474 159.775C103.886 167.362 105.298 174.773 106.886 179.801C106.974 180.066 107.062 180.33 107.151 180.595C113.414 195.769 122.237 210.061 135.646 227.088L135.734 227.176C160.084 257.172 185.756 280.55 214.075 298.459C217.693 300.753 221.398 302.606 224.927 304.37C228.103 305.958 231.102 307.458 233.661 309.046C234.014 309.223 234.366 309.487 234.719 309.664C237.719 311.163 240.542 311.869 243.453 311.869C250.776 311.869 255.363 307.282 256.863 305.782L287.035 275.61C290.034 272.61 294.798 268.993 300.356 268.993C305.826 268.993 310.325 272.434 313.06 275.434C313.148 275.522 313.148 275.522 313.237 275.61L361.847 324.22C370.934 333.219 370.934 342.482 361.935 351.834Z" fill="#4b4f5a"/>
<path d="M225.897 99.4311C249.011 103.313 270.008 114.252 286.77 131.015C303.532 147.777 314.384 168.773 318.354 191.888C319.324 197.71 324.353 201.768 330.087 201.768C330.793 201.768 331.41 201.68 332.116 201.592C338.645 200.533 342.967 194.358 341.909 187.829C337.145 159.863 323.912 134.367 303.709 114.164C283.506 93.9614 258.01 80.7281 230.044 75.9641C223.515 74.9055 217.428 79.2283 216.281 85.6685C215.134 92.1087 219.369 98.3725 225.897 99.4311Z" fill="#4b4f5a"/>
<path d="M417.515 184.389C409.663 138.337 387.96 96.4316 354.613 63.0838C321.265 29.736 279.359 8.03343 233.308 0.181696C226.868 -0.965187 220.78 3.4459 219.633 9.88609C218.575 16.4145 222.898 22.5018 229.426 23.6487C270.537 30.6182 308.032 50.1152 337.851 79.8459C367.669 109.665 387.078 147.159 394.048 188.271C395.018 194.093 400.047 198.151 405.781 198.151C406.487 198.151 407.105 198.063 407.81 197.975C414.251 197.004 418.662 190.829 417.515 184.389Z" fill="#4b4f5a"/>
</g>
<defs>
<clipPath id="clip0">
<rect width="418" height="418" fill="white"/>
</clipPath>
</defs>
</svg>
