<svg width="422" height="385" viewBox="0 0 422 385" fill="none" xmlns="http://www.w3.org/2000/svg">
<path d="M212.377 84.3728C182.636 84.3728 158.429 106.457 158.429 133.59C158.429 160.723 182.636 182.808 212.377 182.808C242.117 182.808 266.324 160.723 266.324 133.59C266.324 106.457 242.117 84.3728 212.377 84.3728ZM212.377 168.746C191.129 168.746 173.843 152.975 173.843 133.59C173.843 114.206 191.129 98.4349 212.377 98.4349C233.624 98.4349 250.911 114.206 250.911 133.59C250.911 152.975 233.624 168.746 212.377 168.746Z" fill="#4b4f5a"/>
<path d="M315.516 39.4935C287.602 14.027 250.486 0 211.012 0C171.53 0 134.422 14.027 106.508 39.4935C54.8497 86.6157 48.43 175.277 92.6052 228.995L211.012 385L329.242 229.213C373.594 175.277 367.175 86.6157 315.516 39.4935ZM316.741 220.993L211.012 360.293L105.113 220.775C65.0458 172.036 70.7873 91.9663 117.413 49.4354C142.414 26.6266 175.653 14.0621 211.012 14.0621C246.371 14.0621 279.61 26.6266 304.619 49.4354C351.245 91.9663 356.986 172.036 316.741 220.993Z" fill="#4b4f5a"/>
</svg>
