<svg width="150"  viewBox="0 0 301 301" fill="none" xmlns="http://www.w3.org/2000/svg">
<g clip-path="url(#clip0)">
<path d="M296.715 79.0399C296.714 79.0399 296.714 79.0399 296.713 79.0399L296.703 79.0299L277.275 76.258C274.544 75.869 272.646 73.3399 273.035 70.6092C273.221 69.2969 273.922 68.1132 274.982 67.3178L290.685 55.5407C292.892 53.8857 293.339 50.7554 291.684 48.5484L273.704 24.5748C272.049 22.3679 268.918 21.9209 266.712 23.5759L251.014 35.353C248.816 37.0205 245.683 36.591 244.016 34.3934C243.206 33.3265 242.859 31.9786 243.053 30.6531L245.829 11.2245C246.221 8.49378 244.325 5.96344 241.595 5.57137C241.593 5.57137 241.591 5.57075 241.589 5.57075L211.942 1.33541C209.212 0.943342 206.68 2.83876 206.288 5.5695C206.288 5.57012 206.288 5.57013 206.288 5.57075L203.511 24.9994C203.122 27.7301 200.593 29.6286 197.862 29.2397C196.55 29.053 195.366 28.3519 194.571 27.2918L182.799 11.5891C181.144 9.38218 178.013 8.93517 175.807 10.5902L160.798 21.8528C154.008 21.1311 147.161 21.1311 140.371 21.8528C95.9032 26.9354 61.0322 62.3976 56.6976 106.944C56.5628 108.358 56.5128 109.761 56.4429 111.165H54.9445C52.5747 111.169 50.5338 112.838 50.0599 115.16L46.6087 131.572L32.7839 122.038C30.7999 120.668 28.1203 120.913 26.4159 122.617L11.4324 137.6C9.73055 139.304 9.48707 141.98 10.8531 143.963L20.3426 157.763L3.92569 161.214C1.62947 161.718 -0.00498309 163.754 1.14151e-05 166.104V186.082C-0.00123721 188.444 1.65382 190.485 3.96565 190.972L20.3826 194.423L10.893 208.223C9.52703 210.206 9.77051 212.882 11.4724 214.586L26.4559 229.569C28.1603 231.274 30.8398 231.518 32.8239 230.149L46.6237 220.634L50.0749 237.051C50.5488 239.373 52.5896 241.042 54.9595 241.047H74.9375C77.2999 241.048 79.3402 239.393 79.8272 237.081L83.2784 220.664L97.0782 230.154C99.0616 231.52 101.737 231.276 103.441 229.574L111.198 221.793V236.027C111.22 243.132 115.027 249.687 121.187 253.228V280.978C121.187 292.011 130.131 300.956 141.165 300.956H161.143C172.176 300.956 181.121 292.011 181.121 280.978V253.228C187.281 249.687 191.087 243.132 191.11 236.027V216.259C191.245 207.941 195.597 200.262 202.662 195.871C206.807 193.182 210.737 190.176 214.419 186.881L207.756 179.439C204.463 182.391 200.945 185.081 197.233 187.486C187.316 193.71 181.245 204.551 181.121 216.259V236.027C181.121 241.544 176.649 246.016 171.132 246.016H131.176C125.659 246.016 121.187 241.544 121.187 236.027V215.844C121.071 204.358 115.096 193.726 105.344 187.655C65.7583 162.781 53.8314 110.527 78.7053 70.9413C94.1383 46.3802 121.072 31.431 150.08 31.3274C150.006 31.5053 149.94 31.687 149.885 31.8718C149.7 33.1829 150.043 34.5145 150.839 35.5727L162.611 51.2705C163.852 52.8768 163.971 55.0831 162.911 56.8143C161.889 58.5562 159.915 59.5064 157.916 59.2167L138.488 56.4398C135.757 56.0483 133.227 57.9444 132.834 60.6745C132.834 60.6763 132.834 60.6782 132.834 60.6801L128.593 90.3424C128.202 93.0726 130.098 95.6035 132.828 95.9956C132.83 95.9956 132.832 95.9962 132.834 95.9962L152.262 98.7732C154.993 99.1621 156.892 101.691 156.503 104.422C156.316 105.734 155.615 106.918 154.555 107.713L138.857 119.485C136.65 121.14 136.203 124.271 137.858 126.478L155.839 150.451C157.494 152.658 160.624 153.105 162.831 151.45L178.534 139.678C180.742 138.026 183.873 138.478 185.525 140.687C186.315 141.744 186.655 143.071 186.47 144.378L183.698 163.807C183.306 166.537 185.201 169.068 187.932 169.46C187.933 169.46 187.933 169.46 187.933 169.46L217.601 173.701C217.834 173.731 218.069 173.746 218.305 173.746C220.791 173.749 222.901 171.922 223.254 169.46L226.026 150.032C226.415 147.301 228.944 145.402 231.675 145.791C232.987 145.978 234.171 146.679 234.966 147.739L246.743 163.437C248.399 165.644 251.529 166.091 253.736 164.436L277.709 146.456C279.916 144.801 280.363 141.67 278.708 139.463L266.936 123.766C265.701 122.157 265.582 119.954 266.637 118.222C267.636 116.457 269.629 115.5 271.631 115.824L291.06 118.596C293.79 118.988 296.321 117.092 296.713 114.362C296.713 114.362 296.713 114.362 296.713 114.361L300.949 84.6937C301.341 81.9629 299.445 79.432 296.715 79.0399ZM131.176 256.005H171.132V265.994H131.176V256.005V256.005ZM131.176 275.983H171.132V280.978C171.132 286.495 166.66 290.967 161.143 290.967H141.165C135.648 290.967 131.176 286.495 131.176 280.978V275.983V275.983ZM91.4144 189.853C94.1414 192.083 96.9908 194.159 99.95 196.071C104.669 199.053 108.222 203.565 110.014 208.852L99.3007 219.545L88.9271 212.393C84.3846 209.263 78.1646 210.408 75.0337 214.95C74.2833 216.04 73.7563 217.267 73.4841 218.561L70.867 231.033H58.9951L56.378 218.581C55.2417 213.183 49.9444 209.727 44.546 210.864C43.2518 211.136 42.0244 211.663 40.935 212.413L30.5564 219.545L21.4564 210.465L28.6035 200.097C31.737 195.556 30.5957 189.335 26.0551 186.202C24.965 185.45 23.7364 184.921 22.4403 184.649L9.98902 182.027V170.16L22.4403 167.538C27.8369 166.393 31.2843 161.091 30.14 155.694C29.8684 154.413 29.3483 153.199 28.6085 152.119L21.4564 141.721L30.5564 132.641L40.94 139.793C45.4843 142.92 51.7044 141.771 54.8315 137.227C55.5807 136.139 56.1064 134.913 56.378 133.62L57.252 129.464C58.0524 135.219 59.3778 140.888 61.2126 146.401C44.7789 148.36 33.0449 163.271 35.004 179.705C36.9631 196.139 51.8742 207.872 68.308 205.913C78.2008 204.733 86.8607 198.714 91.4144 189.853ZM83.6579 182.816C79.9283 193.182 68.5015 198.563 58.1348 194.834C47.7681 191.104 42.3877 179.677 46.1168 169.311C48.9699 161.38 56.4997 156.098 64.9279 156.115C64.9929 156.115 65.0528 156.115 65.1177 156.115C69.7108 166.019 75.9833 175.052 83.6579 182.816ZM287.504 107.988L273.02 105.92C264.827 104.75 257.238 110.443 256.068 118.635C255.506 122.569 256.53 126.565 258.915 129.744L267.69 141.446L251.708 153.433L242.928 141.736C237.963 135.115 228.572 133.772 221.951 138.737C218.772 141.12 216.67 144.67 216.107 148.603L214.084 163.107L194.311 160.28L196.379 145.796C197.552 137.605 191.862 130.013 183.67 128.841C179.734 128.277 175.736 129.301 172.555 131.687L160.853 140.462L148.866 124.48L160.563 115.7C167.184 110.735 168.527 101.343 163.563 94.7233C161.179 91.5442 157.63 89.4422 153.696 88.8791L139.212 86.8113L142.039 67.0381L156.523 69.1058C164.714 70.2789 172.306 64.5889 173.478 56.3973C174.042 52.461 173.018 48.4629 170.632 45.282L161.827 33.5699L177.809 21.5831L186.59 33.2852C191.554 39.9061 200.946 41.249 207.566 36.2844C210.745 33.9008 212.847 30.3516 213.41 26.4178L215.478 11.9337L235.251 14.7556L233.183 29.2397C232.013 37.4319 237.706 45.0211 245.898 46.191C249.832 46.7529 253.828 45.7291 257.007 43.3442L268.709 34.5688L280.696 50.5512L268.994 59.3316C262.373 64.2961 261.03 73.6877 265.995 80.3079C268.378 83.4869 271.928 85.5889 275.861 86.1521L290.345 88.2198L287.504 107.988Z" fill="#0D305B"/>
<path d="M214.764 47.5545C192.697 47.5545 174.808 65.4436 174.808 87.5106C174.808 109.578 192.697 127.467 214.764 127.467C236.831 127.467 254.72 109.578 254.72 87.5106C254.695 65.4536 236.821 47.5789 214.764 47.5545ZM214.764 117.478C198.213 117.478 184.797 104.061 184.797 87.5106C184.797 70.96 198.213 57.5435 214.764 57.5435C231.314 57.5435 244.731 70.96 244.731 87.5106C244.711 104.053 231.306 117.458 214.764 117.478Z" fill="#0D305B"/>
<path d="M156.148 221.044H146.159V236.027H156.148V221.044Z" fill="#0D305B"/>
<path d="M129.308 171.993C98.476 159.948 83.2459 125.19 95.2907 94.3586C99.9581 82.4118 108.334 72.2773 119.189 65.4448L113.85 56.9941C81.1756 77.5784 71.3745 120.753 91.9588 153.427C99.9306 166.081 111.75 175.846 125.682 181.287C138.013 186.012 146.156 197.849 146.159 211.055H156.148C156.164 193.729 145.487 178.19 129.308 171.993Z" fill="#0D305B"/>
<path d="M281.011 186.082H246.049V196.071H281.011V186.082Z" fill="#0D305B"/>
<path d="M244.253 212.209L237.859 219.883L267.828 244.851L274.222 237.177L244.253 212.209Z" fill="#0D305B"/>
<path d="M226.071 226.038H216.082V261H226.071V226.038Z" fill="#0D305B"/>
<path d="M45.0533 76.3494L5.10004 86.3367L7.52116 96.0222L47.4744 86.0349L45.0533 76.3494Z" fill="#0D305B"/>
<path d="M19.1993 27.1947L13.3965 35.3187L48.3553 60.2886L54.158 52.1646L19.1993 27.1947Z" fill="#0D305B"/>
<path d="M65.8674 0.0416531L56.19 2.51593L66.4051 42.4689L76.0824 39.9946L65.8674 0.0416531Z" fill="#0D305B"/>
</g>
<defs>
<clipPath id="clip0">
<rect width="301" height="301" fill="white"/>
</clipPath>
</defs>
</svg>
