<svg width="125px" height="119px" viewBox="0 0 125 119" version="1.1" xmlns="http://www.w3.org/2000/svg" xmlns:xlink="http://www.w3.org/1999/xlink">
                    <defs></defs>
                    <g id="Page-1" stroke="none" stroke-width="1" fill="none" fill-rule="evenodd" stroke-linecap="round" stroke-linejoin="round">
                      <g transform="translate(1.000000, 0.000000)" stroke="#E83A7B" stroke-width="2">
                        <g id="Group-29" transform="translate(0.000000, 0.095000)">
                          <path d="M62.269,84.3867 L79.882,101.9997 L15,101.9997 L15,37.1187 L51.961,74.0797 M51.851,52.7557 L0,0.9057 L0,116.9997 L116.095,116.9997 L83.484,84.3877" id="Stroke-1"></path>
                          <path d="M0.0005,13.229 L7.0535,13.229" id="Stroke-3"></path>
                          <path d="M0.0005,20.8496 L3.0535,20.8496" id="Stroke-5"></path>
                          <path d="M0.0005,28.4702 L7.0535,28.4702" id="Stroke-7"></path>
                          <path d="M0.0005,36.0908 L3.0535,36.0908" id="Stroke-9"></path>
                          <path d="M0.0005,43.7114 L7.0535,43.7114" id="Stroke-11"></path>
                          <path d="M0.0005,51.332 L3.0535,51.332" id="Stroke-13"></path>
                          <path d="M0.0005,58.9526 L7.0535,58.9526" id="Stroke-15"></path>
                          <path d="M0.0005,66.5732 L3.0535,66.5732" id="Stroke-17"></path>
                          <path d="M0.0005,74.1943 L7.0535,74.1943" id="Stroke-19"></path>
                          <path d="M0.0005,81.8154 L3.0535,81.8154" id="Stroke-21"></path>
                          <path d="M0.0005,89.4365 L7.0535,89.4365" id="Stroke-23"></path>
                          <path d="M0.0005,97.0576 L3.0535,97.0576" id="Stroke-25"></path>
                          <path d="M0.0005,104.6787 L7.0535,104.6787" id="Stroke-27"></path>
                        </g>
                        <polygon id="Stroke-30" points="51.849 84.484 103.073 84.484 103.073 36.186 51.849 36.186"></polygon>
                        <polygon id="Stroke-31" points="51.849 36.186 103.073 36.186 103.073 8.357 51.849 8.357"></polygon>
                        <polygon id="Stroke-32" points="56.849 31.186 98.073 31.186 98.073 13.357 56.849 13.357"></polygon>
                        <polygon id="Stroke-33" points="56.849 50.742 64.829 50.742 64.829 42.762 56.849 42.762"></polygon>
                        <polygon id="Stroke-34" points="73.47 50.742 81.45 50.742 81.45 42.762 73.47 42.762"></polygon>
                        <polygon id="Stroke-35" points="90.092 50.742 98.072 50.742 98.072 42.762 90.092 42.762"></polygon>
                        <polygon id="Stroke-36" points="56.849 64.325 64.829 64.325 64.829 56.345 56.849 56.345"></polygon>
                        <polygon id="Stroke-37" points="73.47 64.325 81.45 64.325 81.45 56.345 73.47 56.345"></polygon>
                        <polygon id="Stroke-38" points="90.092 64.325 98.072 64.325 98.072 56.345 90.092 56.345"></polygon>
                        <polygon id="Stroke-39" points="56.849 77.907 64.829 77.907 64.829 69.928 56.849 69.928"></polygon>
                        <polygon id="Stroke-40" points="73.47 77.907 81.45 77.907 81.45 69.928 73.47 69.928"></polygon>
                        <polygon id="Stroke-41" points="90.092 77.907 98.072 77.907 98.072 69.928 90.092 69.928"></polygon>
                        <g id="Group-48" transform="translate(112.000000, 8.095000)">
                          <polygon id="Stroke-42" points="0.5444 0.2622 0.5444 45.8392 0.5444 58.9632 5.3204 65.5632 10.0974 58.9632 10.0974 45.8392 10.0974 0.2622"></polygon>
                          <path d="M0.5444,9.6963 L10.0974,9.6963" id="Stroke-44"></path>
                          <path d="M0.5444,58.3379 L10.0974,58.3379" id="Stroke-46"></path>
                        </g>
                      </g>
                    </g>
                  </svg>