<svg width="150" viewBox="0 0 291 291" fill="none" xmlns="http://www.w3.org/2000/svg">
<path d="M115.486 192.585L124.392 178.216C126.529 174.772 125.461 170.319 122.017 168.182C118.633 166.044 114.12 167.113 111.982 170.557L103.076 184.925C86.9259 210.991 63.8882 225.954 39.7817 225.954H7.24383C3.20628 225.954 0 229.22 0 233.257C0 237.295 3.26566 240.56 7.24383 240.56H39.8411C69.1132 240.442 96.6635 222.985 115.486 192.585Z" fill="#0D305B"/>
<path d="M288.803 52.6959L253.534 17.3674C250.684 14.5174 246.112 14.5174 243.262 17.3674C240.412 20.2174 240.412 24.7893 243.262 27.6394L266.181 50.5584C266.122 50.5584 266.122 50.5584 266.062 50.5584H232.396C203.184 50.5584 175.574 68.0148 156.752 98.4151L151.289 107.262C149.152 110.706 150.22 115.159 153.664 117.297C154.852 118.009 156.158 118.365 157.464 118.365C159.899 118.365 162.274 117.118 163.639 114.922L169.102 106.075C185.252 80.0087 208.29 65.1054 232.396 65.1054H266.003C266.062 65.1054 266.062 65.1054 266.122 65.1054L243.203 88.0244C240.353 90.8744 240.353 95.4464 243.203 98.2964C244.628 99.7214 246.468 100.434 248.368 100.434C250.268 100.434 252.109 99.7214 253.534 98.2964L288.863 62.9679C291.653 60.1178 291.653 55.4865 288.803 52.6959ZM273.306 57.9209C273.306 57.8616 273.306 57.8616 273.306 57.8022C273.306 57.7428 273.306 57.7428 273.306 57.6834L273.425 57.8022L273.306 57.9209Z" fill="#0D305B"/>
<path d="M243.203 273.633C244.628 275.058 246.468 275.77 248.368 275.77C250.268 275.77 252.109 275.058 253.534 273.633L288.862 238.304C291.713 235.454 291.713 230.882 288.862 228.032L253.534 192.763C250.684 189.913 246.112 189.913 243.262 192.763C240.412 195.613 240.412 200.185 243.262 203.035L266.181 225.954C266.122 225.954 266.122 225.954 266.062 225.954H233.465C209.418 225.954 186.321 210.991 170.171 184.925L116.614 98.4151C97.7917 67.9554 70.182 50.5583 40.9692 50.5583H7.24383C3.20628 50.5583 0 53.824 0 57.8616C0 61.8991 3.26566 65.1648 7.24383 65.1648H40.9098C64.9569 65.1648 88.0541 80.1274 104.204 106.134L157.761 192.644C176.583 223.104 204.193 240.56 233.406 240.56H266.003C266.062 240.56 266.062 240.56 266.122 240.56L243.203 263.479C240.412 266.211 240.412 270.783 243.203 273.633ZM273.306 233.079L273.425 233.198L273.306 233.317C273.306 233.257 273.306 233.257 273.306 233.198C273.306 233.138 273.306 233.138 273.306 233.079Z" fill="#0D305B"/>
</svg>
