<?xml version="1.0" encoding="utf-8"?>
<!-- Generator: Adobe Illustrator 16.0.0, SVG Export Plug-In . SVG Version: 6.00 Build 0)  -->
<!DOCTYPE svg PUBLIC "-//W3C//DTD SVG 1.1//EN" "http://www.w3.org/Graphics/SVG/1.1/DTD/svg11.dtd">
<svg version="1.1" id="Layer_1" xmlns="http://www.w3.org/2000/svg" xmlns:xlink="http://www.w3.org/1999/xlink" x="0px" y="0px"
	 width="200.492px" height="233.525px" viewBox="0 0 200.492 233.525" enable-background="new 0 0 200.492 233.525"
	 xml:space="preserve">
<g>
	<path fill="#F2F2F2" d="M192.225,57.789L108.517,2.268c-4.546-3.023-11.994-3.023-16.541,0L8.278,57.794
		C3.724,60.811,0,67.747,0,73.208v87.112c0,5.46,3.724,12.396,8.278,15.414l83.697,55.525c4.547,3.021,11.995,3.021,16.541,0
		l83.708-55.53c4.548-3.018,8.268-9.953,8.268-15.415V73.203C200.492,67.747,196.772,60.811,192.225,57.789z"/>
	<g>
		<g>
			<path fill="none" stroke="#0E2B50" stroke-width="3" stroke-linecap="round" stroke-miterlimit="10" d="M77.216,170.848v-23.146
				c0,0,0.11-8.518-5.475-15.804c-2.191-2.858-4.025-5.982-5.138-9.408c-3.324-10.247-5.279-30.339,16.777-42.121
				c0,0,24.872-12.852,43.892,4.588c3.514,3.222,6.149,7.32,7.395,11.921c0.938,3.461,1.542,8.028,0.882,13.552
				c-0.076,0.634-0.188,1.259-0.3,1.886c-0.263,1.494-0.665,5.658,1.971,9.666l5.069,7.364c0,0,1.507,3.219-2.26,3.904
				c0,0-1.164,0.103-2.053,0.483c-0.566,0.242-0.739,0.968-0.338,1.435c0.56,0.649,1.073,1.727-0.525,2.596
				c-0.478,0.259-0.647,0.846-0.374,1.315c0.512,0.879,0.801,2.19-1.39,2.842c-0.465,0.139-0.769,0.59-0.675,1.066
				c0.515,2.649,1.424,10.446-5.742,10.333l-5.923-0.578c-4.173-0.406-8.005,2.43-8.743,6.556c-0.48,2.694-0.815,6.414-0.815,11.55"
				/>
			<g>
				<path fill="none" stroke="#0E2B50" stroke-width="3" stroke-linecap="round" stroke-miterlimit="10" d="M80.119,107.495
					c-1.419-1.242-2.044-3.254-1.424-5.16s2.307-3.167,4.185-3.339c-0.791-1.711-0.543-3.803,0.799-5.291
					c1.342-1.491,3.396-1.957,5.18-1.35c-0.026-1.885,1.052-3.693,2.883-4.509c1.832-0.815,3.896-0.406,5.281,0.875
					c0.741-1.732,2.462-2.946,4.467-2.946c2.006,0,3.726,1.214,4.467,2.946c1.384-1.281,3.451-1.69,5.281-0.875
					c1.832,0.815,2.909,2.624,2.883,4.509c1.784-0.607,3.838-0.142,5.18,1.35c1.341,1.488,1.589,3.58,0.799,5.291
					c1.878,0.172,3.564,1.433,4.184,3.339c0.62,1.906-0.004,3.918-1.423,5.16c1.646,0.92,2.675,2.757,2.465,4.751
					c-0.209,1.994-1.598,3.578-3.398,4.136c1.13,1.509,1.321,3.606,0.319,5.342c-1.002,1.736-2.915,2.619-4.787,2.396
					c0.418,1.839-0.26,3.833-1.882,5.011c-1.622,1.179-3.728,1.207-5.346,0.241c-0.367,1.851-1.798,3.396-3.759,3.812
					c-1.961,0.417-3.896-0.413-4.982-1.953c-1.087,1.54-3.022,2.37-4.982,1.953c-1.962-0.416-3.392-1.961-3.758-3.812
					c-1.618,0.966-3.725,0.938-5.347-0.241c-1.622-1.178-2.3-3.172-1.883-5.011c-1.872,0.224-3.783-0.659-4.785-2.396
					c-1.003-1.735-0.811-3.833,0.318-5.342c-1.801-0.558-3.188-2.142-3.397-4.136C77.444,110.252,78.473,108.415,80.119,107.495z"/>
				<path fill="none" stroke="#0E2B50" stroke-width="3" stroke-linecap="round" stroke-miterlimit="10" d="M115.024,115.337
					c-2.498,0-4.522-2.024-4.522-4.522c0-0.707,0.166-1.373,0.456-1.97c-0.876,0.197-1.833,0.182-2.846-0.241
					c-1.471-0.616-2.615-1.908-2.946-3.47c-0.203-0.954-0.102-1.861,0.2-2.672c-0.102,0.005-0.203,0.015-0.305,0.015
					c-0.214,0-0.424-0.01-0.633-0.027c-4.428-0.41-5.648-6.253-1.927-8.687c1.727-1.129,3.349-2.782,3.454-5.041"/>
				<path fill="none" stroke="#0E2B50" stroke-width="3" stroke-linecap="round" stroke-miterlimit="10" d="M105.062,102.477
					c0,0,4.212-1.488,5.787-5.941"/>
				<path fill="none" stroke="#0E2B50" stroke-width="3" stroke-linecap="round" stroke-miterlimit="10" d="M88.858,92.355
					c0,0,2.875,9.472,11.576,6.62"/>
				<path fill="none" stroke="#0E2B50" stroke-width="3" stroke-linecap="round" stroke-miterlimit="10" d="M80.119,107.495
					c0,0,5.368-0.325,6.806,5.53c0,0,5.641-3.023,10.726,0.08c1.096,0.67,2.018,1.592,2.754,2.644
					c1.36,1.942,3.201,5.602,1.678,9.76"/>
				<path fill="none" stroke="#0E2B50" stroke-width="3" stroke-linecap="round" stroke-miterlimit="10" d="M82.771,98.74
					c0,0,11.204,2.059,10.933,13.031"/>
				<path fill="none" stroke="#0E2B50" stroke-width="3" stroke-linecap="round" stroke-miterlimit="10" d="M117.458,124.119
					c0,0-5.942-7.377-15.104-4.201"/>
				<path fill="none" stroke="#0E2B50" stroke-width="3" stroke-linecap="round" stroke-miterlimit="10" d="M92.749,129.371
					c0,0,2.717-1.844,2.729-5.452c0.012-3.216-3.491-5.325-6.228-3.633c-0.026,0.018-0.055,0.034-0.082,0.052"/>
				<path fill="none" stroke="#0E2B50" stroke-width="3" stroke-linecap="round" stroke-miterlimit="10" d="M106.201,107.212
					c0,0-6.202,0.583-6.779,7.334"/>
				<path fill="none" stroke="#0E2B50" stroke-width="3" stroke-linecap="round" stroke-miterlimit="10" d="M110.958,108.845
					c0,0,2.733-1.29,4.582-3.588"/>
			</g>
		</g>
		
			<line fill="none" stroke="#0E2B50" stroke-width="3" stroke-linecap="round" stroke-miterlimit="10" x1="100.297" y1="65.816" x2="100.297" y2="55.268"/>
		
			<line fill="none" stroke="#0E2B50" stroke-width="3" stroke-linecap="round" stroke-miterlimit="10" x1="114.74" y1="68.363" x2="118.62" y2="57.701"/>
		
			<line fill="none" stroke="#0E2B50" stroke-width="3" stroke-linecap="round" stroke-miterlimit="10" x1="128.265" y1="74.875" x2="135.362" y2="66.412"/>
		
			<line fill="none" stroke="#0E2B50" stroke-width="3" stroke-linecap="round" stroke-miterlimit="10" x1="136.9" y1="83.878" x2="146.949" y2="78.076"/>
		
			<line fill="none" stroke="#0E2B50" stroke-width="3" stroke-linecap="round" stroke-miterlimit="10" x1="62.08" y1="86.109" x2="53.48" y2="81.144"/>
		
			<line fill="none" stroke="#0E2B50" stroke-width="3" stroke-linecap="round" stroke-miterlimit="10" x1="71.456" y1="75.809" x2="64.574" y2="67.606"/>
		
			<line fill="none" stroke="#0E2B50" stroke-width="3" stroke-linecap="round" stroke-miterlimit="10" x1="85.853" y1="69.186" x2="81.995" y2="58.587"/>
	</g>
</g>
</svg>
