<?xml version="1.0" encoding="utf-8"?>
<!-- Generator: Adobe Illustrator 16.0.0, SVG Export Plug-In . SVG Version: 6.00 Build 0)  -->
<!DOCTYPE svg PUBLIC "-//W3C//DTD SVG 1.1//EN" "http://www.w3.org/Graphics/SVG/1.1/DTD/svg11.dtd">
<svg version="1.1" id="Layer_1" xmlns="http://www.w3.org/2000/svg" xmlns:xlink="http://www.w3.org/1999/xlink" x="0px" y="0px"
	 width="200.492px" height="233.525px" viewBox="0 0 200.492 233.525" enable-background="new 0 0 200.492 233.525"
	 xml:space="preserve">
<g>
	<path fill="#F2F2F2" d="M192.225,57.789L108.517,2.268c-4.546-3.023-11.993-3.023-16.54,0L8.279,57.794
		C3.725,60.811,0,67.747,0,73.208v87.112c0,5.46,3.725,12.396,8.279,15.414l83.697,55.525c4.547,3.021,11.994,3.021,16.54,0
		l83.708-55.53c4.549-3.018,8.268-9.953,8.268-15.415V73.203C200.492,67.747,196.773,60.811,192.225,57.789z"/>
	<g>
		<g>
			<polyline fill="none" stroke="#D04979" stroke-width="3" stroke-linecap="round" stroke-miterlimit="10" points="
				108.385,131.156 100.312,137.235 92.239,131.156 			"/>
			<polyline fill="none" stroke="#D04979" stroke-width="3" stroke-linecap="round" stroke-miterlimit="10" points="95.844,134.687 
				88.697,164.942 100.312,175.653 			"/>
			<polyline fill="none" stroke="#D04979" stroke-width="3" stroke-linecap="round" stroke-miterlimit="10" points="104.78,134.687 
				111.927,164.942 100.312,175.653 			"/>
		</g>
		<g>
			<path fill="none" stroke="#D04979" stroke-width="3" stroke-linecap="round" stroke-miterlimit="10" d="M119.884,163.454
				l28.159-5.832l-3.724-18.639c-0.822-4.108-3.055-7.849-6.295-10.525c-2.07-1.703-4.165-2.798-6.171-3.239l-15.915-4.62
				c-0.345-0.101-0.673-0.254-0.97-0.455c-0.84-0.564-1.39-1.469-1.508-2.474l-0.734-6.299c4.458-3.459,7.753-8.63,9.336-14.67
				c2.841-0.253,5.023-3.412,5.023-7.401c0-3.684-1.852-6.663-4.386-7.3"/>
			<path fill="none" stroke="#D04979" stroke-width="3" stroke-linecap="round" stroke-miterlimit="10" d="M77.79,82.04
				c-2.464,0.703-4.249,3.641-4.249,7.26c0,3.985,2.17,7.142,5.009,7.401c1.59,6.033,4.886,11.205,9.338,14.67l-0.728,6.298
				c-0.116,1.006-0.665,1.91-1.505,2.475c-0.298,0.201-0.625,0.354-0.97,0.455l-15.861,4.604c-2.057,0.453-4.155,1.55-6.221,3.256
				c-3.253,2.687-5.486,6.424-6.301,10.525l-3.723,18.639l25.2,5.22"/>
		</g>
		<path fill="none" stroke="#D04979" stroke-width="3" stroke-linecap="round" stroke-miterlimit="10" d="M122.7,82
			c0,0,1.315-26.374-22.391-26.374S77.79,82.04,77.79,82.04"/>
		<path fill="none" stroke="#D04979" stroke-width="3" stroke-linecap="round" stroke-miterlimit="10" d="M79.478,70.708
			c0.923-1.892,2.728-3.346,4.706-4.064c3.212-1.168,6.812-0.234,9.921,1.185c4.491,2.05,8.413,4.461,13.448,5.017
			c4.796,0.527,9.191-0.005,13.5-2.203"/>
		<polyline fill="none" stroke="#D04979" stroke-width="3" stroke-linecap="round" stroke-miterlimit="10" points="113.293,116.194 
			100.312,127.818 87.33,116.194 		"/>
		
			<line fill="none" stroke="#D04979" stroke-width="3" stroke-linecap="round" stroke-miterlimit="10" x1="121.049" y1="147.441" x2="135.738" y2="144.675"/>
	</g>
</g>
</svg>
