<?xml version="1.0" encoding="utf-8"?>
<!-- Generator: Adobe Illustrator 16.0.0, SVG Export Plug-In . SVG Version: 6.00 Build 0)  -->
<!DOCTYPE svg PUBLIC "-//W3C//DTD SVG 1.1//EN" "http://www.w3.org/Graphics/SVG/1.1/DTD/svg11.dtd">
<svg version="1.1" id="Layer_1" xmlns="http://www.w3.org/2000/svg" xmlns:xlink="http://www.w3.org/1999/xlink" x="0px" y="0px"
	 width="200.492px" height="233.525px" viewBox="0 0 200.492 233.525" enable-background="new 0 0 200.492 233.525"
	 xml:space="preserve">
<g>
	<path fill="#F2F2F2" d="M192.225,57.789L108.517,2.268c-4.546-3.023-11.993-3.023-16.54,0L8.279,57.794
		C3.725,60.811,0,67.747,0,73.208v87.112c0,5.46,3.725,12.396,8.279,15.414l83.697,55.525c4.547,3.021,11.994,3.021,16.54,0
		l83.708-55.53c4.549-3.018,8.268-9.953,8.268-15.415V73.203C200.492,67.747,196.773,60.811,192.225,57.789z"/>
	<g>
		
			<rect x="59.986" y="83.072" fill="none" stroke="#FF985C" stroke-width="3" stroke-linecap="round" stroke-linejoin="round" stroke-miterlimit="10" width="38.173" height="77.786"/>
		
			<rect x="54.454" y="74.796" fill="none" stroke="#FF985C" stroke-width="3" stroke-linecap="round" stroke-linejoin="round" stroke-miterlimit="10" width="49.236" height="8.276"/>
		
			<line fill="none" stroke="#FF985C" stroke-width="3" stroke-linecap="round" stroke-linejoin="round" stroke-miterlimit="10" x1="51.791" y1="160.858" x2="152.757" y2="160.858"/>
		<path fill="none" stroke="#FF985C" stroke-width="3" stroke-linecap="round" stroke-linejoin="round" stroke-miterlimit="10" d="
			M71.796,160.858v-16.911c0-1.229,0.994-2.224,2.223-2.224h10.108c1.228,0,2.224,0.995,2.224,2.224v16.911"/>
		<path fill="none" stroke="#FF985C" stroke-width="3" stroke-linecap="round" stroke-linejoin="round" stroke-miterlimit="10" d="
			M118.197,160.858v-16.911c0-1.229,0.994-2.224,2.224-2.224h10.108c1.228,0,2.223,0.995,2.223,2.224v16.911"/>
		
			<rect x="106.39" y="120.017" fill="none" stroke="#FF985C" stroke-width="3" stroke-linecap="round" stroke-linejoin="round" stroke-miterlimit="10" width="38.172" height="40.842"/>
		<g>
			
				<rect x="66.658" y="88.885" fill="none" stroke="#FF985C" stroke-width="3" stroke-linecap="round" stroke-linejoin="round" stroke-miterlimit="10" width="5.551" height="5.55"/>
			
				<rect x="76.298" y="88.885" fill="none" stroke="#FF985C" stroke-width="3" stroke-linecap="round" stroke-linejoin="round" stroke-miterlimit="10" width="5.551" height="5.55"/>
			
				<rect x="85.936" y="88.885" fill="none" stroke="#FF985C" stroke-width="3" stroke-linecap="round" stroke-linejoin="round" stroke-miterlimit="10" width="5.551" height="5.55"/>
		</g>
		<g>
			
				<rect x="66.658" y="99.136" fill="none" stroke="#FF985C" stroke-width="3" stroke-linecap="round" stroke-linejoin="round" stroke-miterlimit="10" width="5.551" height="5.55"/>
			
				<rect x="76.298" y="99.136" fill="none" stroke="#FF985C" stroke-width="3" stroke-linecap="round" stroke-linejoin="round" stroke-miterlimit="10" width="5.551" height="5.55"/>
			
				<rect x="85.936" y="99.136" fill="none" stroke="#FF985C" stroke-width="3" stroke-linecap="round" stroke-linejoin="round" stroke-miterlimit="10" width="5.551" height="5.55"/>
		</g>
		<g>
			
				<rect x="66.658" y="109.387" fill="none" stroke="#FF985C" stroke-width="3" stroke-linecap="round" stroke-linejoin="round" stroke-miterlimit="10" width="5.551" height="5.551"/>
			
				<rect x="76.298" y="109.387" fill="none" stroke="#FF985C" stroke-width="3" stroke-linecap="round" stroke-linejoin="round" stroke-miterlimit="10" width="5.551" height="5.551"/>
			
				<rect x="85.936" y="109.387" fill="none" stroke="#FF985C" stroke-width="3" stroke-linecap="round" stroke-linejoin="round" stroke-miterlimit="10" width="5.551" height="5.551"/>
		</g>
		<g>
			
				<rect x="66.658" y="119.638" fill="none" stroke="#FF985C" stroke-width="3" stroke-linecap="round" stroke-linejoin="round" stroke-miterlimit="10" width="5.551" height="5.55"/>
			
				<rect x="76.298" y="119.638" fill="none" stroke="#FF985C" stroke-width="3" stroke-linecap="round" stroke-linejoin="round" stroke-miterlimit="10" width="5.551" height="5.55"/>
			
				<rect x="85.936" y="119.638" fill="none" stroke="#FF985C" stroke-width="3" stroke-linecap="round" stroke-linejoin="round" stroke-miterlimit="10" width="5.551" height="5.55"/>
		</g>
		<g>
			
				<rect x="113.062" y="126.064" fill="none" stroke="#FF985C" stroke-width="3" stroke-linecap="round" stroke-linejoin="round" stroke-miterlimit="10" width="5.551" height="5.552"/>
			
				<rect x="122.699" y="126.064" fill="none" stroke="#FF985C" stroke-width="3" stroke-linecap="round" stroke-linejoin="round" stroke-miterlimit="10" width="5.552" height="5.552"/>
			
				<rect x="132.339" y="126.064" fill="none" stroke="#FF985C" stroke-width="3" stroke-linecap="round" stroke-linejoin="round" stroke-miterlimit="10" width="5.551" height="5.552"/>
		</g>
	</g>
</g>
</svg>
